G04 #@! TF.GenerationSoftware,KiCad,Pcbnew,(5.1.9)-1*
G04 #@! TF.CreationDate,2024-12-20T15:57:44+09:00*
G04 #@! TF.ProjectId,JR-100_SD,4a522d31-3030-45f5-9344-2e6b69636164,rev?*
G04 #@! TF.SameCoordinates,PX53920b0PY93c3260*
G04 #@! TF.FileFunction,Legend,Top*
G04 #@! TF.FilePolarity,Positive*
%FSLAX46Y46*%
G04 Gerber Fmt 4.6, Leading zero omitted, Abs format (unit mm)*
G04 Created by KiCad (PCBNEW (5.1.9)-1) date 2024-12-20 15:57:44*
%MOMM*%
%LPD*%
G01*
G04 APERTURE LIST*
%ADD10C,0.150000*%
%ADD11C,0.500000*%
%ADD12C,0.120000*%
G04 APERTURE END LIST*
D10*
X87050619Y6405381D02*
X87526809Y6738715D01*
X87050619Y6976810D02*
X88050619Y6976810D01*
X88050619Y6595858D01*
X88003000Y6500620D01*
X87955380Y6453000D01*
X87860142Y6405381D01*
X87717285Y6405381D01*
X87622047Y6453000D01*
X87574428Y6500620D01*
X87526809Y6595858D01*
X87526809Y6976810D01*
X87574428Y5976810D02*
X87574428Y5643477D01*
X87050619Y5500620D02*
X87050619Y5976810D01*
X88050619Y5976810D01*
X88050619Y5500620D01*
X87098238Y5119667D02*
X87050619Y4976810D01*
X87050619Y4738715D01*
X87098238Y4643477D01*
X87145857Y4595858D01*
X87241095Y4548239D01*
X87336333Y4548239D01*
X87431571Y4595858D01*
X87479190Y4643477D01*
X87526809Y4738715D01*
X87574428Y4929191D01*
X87622047Y5024429D01*
X87669666Y5072048D01*
X87764904Y5119667D01*
X87860142Y5119667D01*
X87955380Y5072048D01*
X88003000Y5024429D01*
X88050619Y4929191D01*
X88050619Y4691096D01*
X88003000Y4548239D01*
X87574428Y4119667D02*
X87574428Y3786334D01*
X87050619Y3643477D02*
X87050619Y4119667D01*
X88050619Y4119667D01*
X88050619Y3643477D01*
X88050619Y3357762D02*
X88050619Y2786334D01*
X87050619Y3072048D02*
X88050619Y3072048D01*
X49157000Y68977239D02*
X49109380Y68882000D01*
X49109380Y68739143D01*
X49157000Y68596286D01*
X49252238Y68501048D01*
X49347476Y68453429D01*
X49537952Y68405810D01*
X49680809Y68405810D01*
X49871285Y68453429D01*
X49966523Y68501048D01*
X50061761Y68596286D01*
X50109380Y68739143D01*
X50109380Y68834381D01*
X50061761Y68977239D01*
X50014142Y69024858D01*
X49680809Y69024858D01*
X49680809Y68834381D01*
X49823666Y69405810D02*
X49823666Y69882000D01*
X50109380Y69310572D02*
X49109380Y69643905D01*
X50109380Y69977239D01*
X50109380Y70786762D02*
X50109380Y70310572D01*
X49109380Y70310572D01*
X49204619Y71072477D02*
X49157000Y71120096D01*
X49109380Y71215334D01*
X49109380Y71453429D01*
X49157000Y71548667D01*
X49204619Y71596286D01*
X49299857Y71643905D01*
X49395095Y71643905D01*
X49537952Y71596286D01*
X50109380Y71024858D01*
X50109380Y71643905D01*
X49204619Y72024858D02*
X49157000Y72072477D01*
X49109380Y72167715D01*
X49109380Y72405810D01*
X49157000Y72501048D01*
X49204619Y72548667D01*
X49299857Y72596286D01*
X49395095Y72596286D01*
X49537952Y72548667D01*
X50109380Y71977239D01*
X50109380Y72596286D01*
X49109380Y72882000D02*
X50109380Y73215334D01*
X49109380Y73548667D01*
X50109380Y74405810D02*
X50109380Y73834381D01*
X50109380Y74120096D02*
X49109380Y74120096D01*
X49252238Y74024858D01*
X49347476Y73929620D01*
X49395095Y73834381D01*
X49109380Y75024858D02*
X49109380Y75120096D01*
X49157000Y75215334D01*
X49204619Y75262953D01*
X49299857Y75310572D01*
X49490333Y75358191D01*
X49728428Y75358191D01*
X49918904Y75310572D01*
X50014142Y75262953D01*
X50061761Y75215334D01*
X50109380Y75120096D01*
X50109380Y75024858D01*
X50061761Y74929620D01*
X50014142Y74882000D01*
X49918904Y74834381D01*
X49728428Y74786762D01*
X49490333Y74786762D01*
X49299857Y74834381D01*
X49204619Y74882000D01*
X49157000Y74929620D01*
X49109380Y75024858D01*
X84002619Y69786715D02*
X83955000Y69834334D01*
X83907380Y69929572D01*
X83907380Y70167667D01*
X83955000Y70262905D01*
X84002619Y70310524D01*
X84097857Y70358143D01*
X84193095Y70358143D01*
X84335952Y70310524D01*
X84907380Y69739096D01*
X84907380Y70358143D01*
X83907380Y70691477D02*
X83907380Y71358143D01*
X84907380Y70929572D01*
X83907380Y72167667D02*
X83907380Y71977191D01*
X83955000Y71881953D01*
X84002619Y71834334D01*
X84145476Y71739096D01*
X84335952Y71691477D01*
X84716904Y71691477D01*
X84812142Y71739096D01*
X84859761Y71786715D01*
X84907380Y71881953D01*
X84907380Y72072429D01*
X84859761Y72167667D01*
X84812142Y72215286D01*
X84716904Y72262905D01*
X84478809Y72262905D01*
X84383571Y72215286D01*
X84335952Y72167667D01*
X84288333Y72072429D01*
X84288333Y71881953D01*
X84335952Y71786715D01*
X84383571Y71739096D01*
X84478809Y71691477D01*
X84240714Y73120048D02*
X84907380Y73120048D01*
X83859761Y72881953D02*
X84574047Y72643858D01*
X84574047Y73262905D01*
X45973809Y7500953D02*
X46069047Y7453334D01*
X46116666Y7405715D01*
X46164285Y7310477D01*
X46164285Y7262858D01*
X46116666Y7167620D01*
X46069047Y7120000D01*
X45973809Y7072381D01*
X45783333Y7072381D01*
X45688095Y7120000D01*
X45640476Y7167620D01*
X45592857Y7262858D01*
X45592857Y7310477D01*
X45640476Y7405715D01*
X45688095Y7453334D01*
X45783333Y7500953D01*
X45973809Y7500953D01*
X46069047Y7548572D01*
X46116666Y7596191D01*
X46164285Y7691429D01*
X46164285Y7881905D01*
X46116666Y7977143D01*
X46069047Y8024762D01*
X45973809Y8072381D01*
X45783333Y8072381D01*
X45688095Y8024762D01*
X45640476Y7977143D01*
X45592857Y7881905D01*
X45592857Y7691429D01*
X45640476Y7596191D01*
X45688095Y7548572D01*
X45783333Y7500953D01*
X45211904Y7167620D02*
X45164285Y7120000D01*
X45069047Y7072381D01*
X44830952Y7072381D01*
X44735714Y7120000D01*
X44688095Y7167620D01*
X44640476Y7262858D01*
X44640476Y7358096D01*
X44688095Y7500953D01*
X45259523Y8072381D01*
X44640476Y8072381D01*
X43735714Y7072381D02*
X44211904Y7072381D01*
X44259523Y7548572D01*
X44211904Y7500953D01*
X44116666Y7453334D01*
X43878571Y7453334D01*
X43783333Y7500953D01*
X43735714Y7548572D01*
X43688095Y7643810D01*
X43688095Y7881905D01*
X43735714Y7977143D01*
X43783333Y8024762D01*
X43878571Y8072381D01*
X44116666Y8072381D01*
X44211904Y8024762D01*
X44259523Y7977143D01*
X42783333Y7072381D02*
X43259523Y7072381D01*
X43307142Y7548572D01*
X43259523Y7500953D01*
X43164285Y7453334D01*
X42926190Y7453334D01*
X42830952Y7500953D01*
X42783333Y7548572D01*
X42735714Y7643810D01*
X42735714Y7881905D01*
X42783333Y7977143D01*
X42830952Y8024762D01*
X42926190Y8072381D01*
X43164285Y8072381D01*
X43259523Y8024762D01*
X43307142Y7977143D01*
X52442857Y61809381D02*
X52347619Y61809381D01*
X52252380Y61857000D01*
X52204761Y61904620D01*
X52157142Y61999858D01*
X52109523Y62190334D01*
X52109523Y62428429D01*
X52157142Y62618905D01*
X52204761Y62714143D01*
X52252380Y62761762D01*
X52347619Y62809381D01*
X52442857Y62809381D01*
X52538095Y62761762D01*
X52585714Y62714143D01*
X52633333Y62618905D01*
X52680952Y62428429D01*
X52680952Y62190334D01*
X52633333Y61999858D01*
X52585714Y61904620D01*
X52538095Y61857000D01*
X52442857Y61809381D01*
X51680952Y62714143D02*
X51633333Y62761762D01*
X51680952Y62809381D01*
X51728571Y62761762D01*
X51680952Y62714143D01*
X51680952Y62809381D01*
X50680952Y62809381D02*
X51252380Y62809381D01*
X50966666Y62809381D02*
X50966666Y61809381D01*
X51061904Y61952239D01*
X51157142Y62047477D01*
X51252380Y62095096D01*
X49823809Y62142715D02*
X49823809Y62809381D01*
X50252380Y62142715D02*
X50252380Y62666524D01*
X50204761Y62761762D01*
X50109523Y62809381D01*
X49966666Y62809381D01*
X49871428Y62761762D01*
X49823809Y62714143D01*
X49014285Y62285572D02*
X49347619Y62285572D01*
X49347619Y62809381D02*
X49347619Y61809381D01*
X48871428Y61809381D01*
X55459380Y76208143D02*
X55459380Y76303381D01*
X55507000Y76398620D01*
X55554619Y76446239D01*
X55649857Y76493858D01*
X55840333Y76541477D01*
X56078428Y76541477D01*
X56268904Y76493858D01*
X56364142Y76446239D01*
X56411761Y76398620D01*
X56459380Y76303381D01*
X56459380Y76208143D01*
X56411761Y76112905D01*
X56364142Y76065286D01*
X56268904Y76017667D01*
X56078428Y75970048D01*
X55840333Y75970048D01*
X55649857Y76017667D01*
X55554619Y76065286D01*
X55507000Y76112905D01*
X55459380Y76208143D01*
X56364142Y76970048D02*
X56411761Y77017667D01*
X56459380Y76970048D01*
X56411761Y76922429D01*
X56364142Y76970048D01*
X56459380Y76970048D01*
X56459380Y77970048D02*
X56459380Y77398620D01*
X56459380Y77684334D02*
X55459380Y77684334D01*
X55602238Y77589096D01*
X55697476Y77493858D01*
X55745095Y77398620D01*
X55792714Y78827191D02*
X56459380Y78827191D01*
X55792714Y78398620D02*
X56316523Y78398620D01*
X56411761Y78446239D01*
X56459380Y78541477D01*
X56459380Y78684334D01*
X56411761Y78779572D01*
X56364142Y78827191D01*
X55935571Y79636715D02*
X55935571Y79303381D01*
X56459380Y79303381D02*
X55459380Y79303381D01*
X55459380Y79779572D01*
X59237619Y5357620D02*
X59237619Y5929048D01*
X59237619Y5643334D02*
X60237619Y5643334D01*
X60094761Y5738572D01*
X59999523Y5833810D01*
X59951904Y5929048D01*
X60237619Y4738572D02*
X60237619Y4643334D01*
X60190000Y4548096D01*
X60142380Y4500477D01*
X60047142Y4452858D01*
X59856666Y4405239D01*
X59618571Y4405239D01*
X59428095Y4452858D01*
X59332857Y4500477D01*
X59285238Y4548096D01*
X59237619Y4643334D01*
X59237619Y4738572D01*
X59285238Y4833810D01*
X59332857Y4881429D01*
X59428095Y4929048D01*
X59618571Y4976667D01*
X59856666Y4976667D01*
X60047142Y4929048D01*
X60142380Y4881429D01*
X60190000Y4833810D01*
X60237619Y4738572D01*
X60237619Y3786191D02*
X60237619Y3690953D01*
X60190000Y3595715D01*
X60142380Y3548096D01*
X60047142Y3500477D01*
X59856666Y3452858D01*
X59618571Y3452858D01*
X59428095Y3500477D01*
X59332857Y3548096D01*
X59285238Y3595715D01*
X59237619Y3690953D01*
X59237619Y3786191D01*
X59285238Y3881429D01*
X59332857Y3929048D01*
X59428095Y3976667D01*
X59618571Y4024286D01*
X59856666Y4024286D01*
X60047142Y3976667D01*
X60142380Y3929048D01*
X60190000Y3881429D01*
X60237619Y3786191D01*
X59904285Y2595715D02*
X59237619Y2595715D01*
X59904285Y3024286D02*
X59380476Y3024286D01*
X59285238Y2976667D01*
X59237619Y2881429D01*
X59237619Y2738572D01*
X59285238Y2643334D01*
X59332857Y2595715D01*
X59761428Y1786191D02*
X59761428Y2119524D01*
X59237619Y2119524D02*
X60237619Y2119524D01*
X60237619Y1643334D01*
X14787619Y98186191D02*
X15787619Y98186191D01*
X15073333Y97852858D01*
X15787619Y97519524D01*
X14787619Y97519524D01*
X14835238Y97090953D02*
X14787619Y96948096D01*
X14787619Y96710000D01*
X14835238Y96614762D01*
X14882857Y96567143D01*
X14978095Y96519524D01*
X15073333Y96519524D01*
X15168571Y96567143D01*
X15216190Y96614762D01*
X15263809Y96710000D01*
X15311428Y96900477D01*
X15359047Y96995715D01*
X15406666Y97043334D01*
X15501904Y97090953D01*
X15597142Y97090953D01*
X15692380Y97043334D01*
X15740000Y96995715D01*
X15787619Y96900477D01*
X15787619Y96662381D01*
X15740000Y96519524D01*
X15787619Y96186191D02*
X14787619Y95519524D01*
X15787619Y95519524D02*
X14787619Y96186191D01*
X15787619Y94090953D02*
X15073333Y94090953D01*
X14930476Y94138572D01*
X14835238Y94233810D01*
X14787619Y94376667D01*
X14787619Y94471905D01*
X15787619Y93424286D02*
X15787619Y93233810D01*
X15740000Y93138572D01*
X15644761Y93043334D01*
X15454285Y92995715D01*
X15120952Y92995715D01*
X14930476Y93043334D01*
X14835238Y93138572D01*
X14787619Y93233810D01*
X14787619Y93424286D01*
X14835238Y93519524D01*
X14930476Y93614762D01*
X15120952Y93662381D01*
X15454285Y93662381D01*
X15644761Y93614762D01*
X15740000Y93519524D01*
X15787619Y93424286D01*
X15263809Y92376667D02*
X14787619Y92376667D01*
X15787619Y92710000D02*
X15263809Y92376667D01*
X15787619Y92043334D01*
X14835238Y90995715D02*
X14787619Y90852858D01*
X14787619Y90614762D01*
X14835238Y90519524D01*
X14882857Y90471905D01*
X14978095Y90424286D01*
X15073333Y90424286D01*
X15168571Y90471905D01*
X15216190Y90519524D01*
X15263809Y90614762D01*
X15311428Y90805239D01*
X15359047Y90900477D01*
X15406666Y90948096D01*
X15501904Y90995715D01*
X15597142Y90995715D01*
X15692380Y90948096D01*
X15740000Y90900477D01*
X15787619Y90805239D01*
X15787619Y90567143D01*
X15740000Y90424286D01*
X15787619Y90138572D02*
X15787619Y89567143D01*
X14787619Y89852858D02*
X15787619Y89852858D01*
X14787619Y89233810D02*
X15787619Y89233810D01*
X14882857Y88186191D02*
X14835238Y88233810D01*
X14787619Y88376667D01*
X14787619Y88471905D01*
X14835238Y88614762D01*
X14930476Y88710000D01*
X15025714Y88757620D01*
X15216190Y88805239D01*
X15359047Y88805239D01*
X15549523Y88757620D01*
X15644761Y88710000D01*
X15740000Y88614762D01*
X15787619Y88471905D01*
X15787619Y88376667D01*
X15740000Y88233810D01*
X15692380Y88186191D01*
X14787619Y87757620D02*
X15787619Y87757620D01*
X14787619Y87186191D02*
X15359047Y87614762D01*
X15787619Y87186191D02*
X15216190Y87757620D01*
X40298761Y77144620D02*
X39727333Y77144620D01*
X40013047Y77144620D02*
X40013047Y78144620D01*
X39917809Y78001762D01*
X39822571Y77906524D01*
X39727333Y77858905D01*
X40917809Y78144620D02*
X41013047Y78144620D01*
X41108285Y78097000D01*
X41155904Y78049381D01*
X41203523Y77954143D01*
X41251142Y77763667D01*
X41251142Y77525572D01*
X41203523Y77335096D01*
X41155904Y77239858D01*
X41108285Y77192239D01*
X41013047Y77144620D01*
X40917809Y77144620D01*
X40822571Y77192239D01*
X40774952Y77239858D01*
X40727333Y77335096D01*
X40679714Y77525572D01*
X40679714Y77763667D01*
X40727333Y77954143D01*
X40774952Y78049381D01*
X40822571Y78097000D01*
X40917809Y78144620D01*
X41679714Y77144620D02*
X41679714Y78144620D01*
X41774952Y77525572D02*
X42060666Y77144620D01*
X42060666Y77811286D02*
X41679714Y77430334D01*
X43981761Y85907620D02*
X43410333Y85907620D01*
X43696047Y85907620D02*
X43696047Y86907620D01*
X43600809Y86764762D01*
X43505571Y86669524D01*
X43410333Y86621905D01*
X44600809Y86907620D02*
X44696047Y86907620D01*
X44791285Y86860000D01*
X44838904Y86812381D01*
X44886523Y86717143D01*
X44934142Y86526667D01*
X44934142Y86288572D01*
X44886523Y86098096D01*
X44838904Y86002858D01*
X44791285Y85955239D01*
X44696047Y85907620D01*
X44600809Y85907620D01*
X44505571Y85955239D01*
X44457952Y86002858D01*
X44410333Y86098096D01*
X44362714Y86288572D01*
X44362714Y86526667D01*
X44410333Y86717143D01*
X44457952Y86812381D01*
X44505571Y86860000D01*
X44600809Y86907620D01*
X45362714Y85907620D02*
X45362714Y86907620D01*
X45457952Y86288572D02*
X45743666Y85907620D01*
X45743666Y86574286D02*
X45362714Y86193334D01*
X33821761Y85780620D02*
X33250333Y85780620D01*
X33536047Y85780620D02*
X33536047Y86780620D01*
X33440809Y86637762D01*
X33345571Y86542524D01*
X33250333Y86494905D01*
X34440809Y86780620D02*
X34536047Y86780620D01*
X34631285Y86733000D01*
X34678904Y86685381D01*
X34726523Y86590143D01*
X34774142Y86399667D01*
X34774142Y86161572D01*
X34726523Y85971096D01*
X34678904Y85875858D01*
X34631285Y85828239D01*
X34536047Y85780620D01*
X34440809Y85780620D01*
X34345571Y85828239D01*
X34297952Y85875858D01*
X34250333Y85971096D01*
X34202714Y86161572D01*
X34202714Y86399667D01*
X34250333Y86590143D01*
X34297952Y86685381D01*
X34345571Y86733000D01*
X34440809Y86780620D01*
X35202714Y85780620D02*
X35202714Y86780620D01*
X35297952Y86161572D02*
X35583666Y85780620D01*
X35583666Y86447286D02*
X35202714Y86066334D01*
X27471761Y77144620D02*
X26900333Y77144620D01*
X27186047Y77144620D02*
X27186047Y78144620D01*
X27090809Y78001762D01*
X26995571Y77906524D01*
X26900333Y77858905D01*
X28090809Y78144620D02*
X28186047Y78144620D01*
X28281285Y78097000D01*
X28328904Y78049381D01*
X28376523Y77954143D01*
X28424142Y77763667D01*
X28424142Y77525572D01*
X28376523Y77335096D01*
X28328904Y77239858D01*
X28281285Y77192239D01*
X28186047Y77144620D01*
X28090809Y77144620D01*
X27995571Y77192239D01*
X27947952Y77239858D01*
X27900333Y77335096D01*
X27852714Y77525572D01*
X27852714Y77763667D01*
X27900333Y77954143D01*
X27947952Y78049381D01*
X27995571Y78097000D01*
X28090809Y78144620D01*
X28852714Y77144620D02*
X28852714Y78144620D01*
X28947952Y77525572D02*
X29233666Y77144620D01*
X29233666Y77811286D02*
X28852714Y77430334D01*
X22772761Y85907620D02*
X22201333Y85907620D01*
X22487047Y85907620D02*
X22487047Y86907620D01*
X22391809Y86764762D01*
X22296571Y86669524D01*
X22201333Y86621905D01*
X23391809Y86907620D02*
X23487047Y86907620D01*
X23582285Y86860000D01*
X23629904Y86812381D01*
X23677523Y86717143D01*
X23725142Y86526667D01*
X23725142Y86288572D01*
X23677523Y86098096D01*
X23629904Y86002858D01*
X23582285Y85955239D01*
X23487047Y85907620D01*
X23391809Y85907620D01*
X23296571Y85955239D01*
X23248952Y86002858D01*
X23201333Y86098096D01*
X23153714Y86288572D01*
X23153714Y86526667D01*
X23201333Y86717143D01*
X23248952Y86812381D01*
X23296571Y86860000D01*
X23391809Y86907620D01*
X24153714Y85907620D02*
X24153714Y86907620D01*
X24248952Y86288572D02*
X24534666Y85907620D01*
X24534666Y86574286D02*
X24153714Y86193334D01*
X80462380Y89844762D02*
X80462380Y89368572D01*
X79462380Y89368572D01*
X80414761Y90130477D02*
X80462380Y90273334D01*
X80462380Y90511429D01*
X80414761Y90606667D01*
X80367142Y90654286D01*
X80271904Y90701905D01*
X80176666Y90701905D01*
X80081428Y90654286D01*
X80033809Y90606667D01*
X79986190Y90511429D01*
X79938571Y90320953D01*
X79890952Y90225715D01*
X79843333Y90178096D01*
X79748095Y90130477D01*
X79652857Y90130477D01*
X79557619Y90178096D01*
X79510000Y90225715D01*
X79462380Y90320953D01*
X79462380Y90559048D01*
X79510000Y90701905D01*
X79462380Y91035239D02*
X79462380Y91654286D01*
X79843333Y91320953D01*
X79843333Y91463810D01*
X79890952Y91559048D01*
X79938571Y91606667D01*
X80033809Y91654286D01*
X80271904Y91654286D01*
X80367142Y91606667D01*
X80414761Y91559048D01*
X80462380Y91463810D01*
X80462380Y91178096D01*
X80414761Y91082858D01*
X80367142Y91035239D01*
X79462380Y92511429D02*
X79462380Y92320953D01*
X79510000Y92225715D01*
X79557619Y92178096D01*
X79700476Y92082858D01*
X79890952Y92035239D01*
X80271904Y92035239D01*
X80367142Y92082858D01*
X80414761Y92130477D01*
X80462380Y92225715D01*
X80462380Y92416191D01*
X80414761Y92511429D01*
X80367142Y92559048D01*
X80271904Y92606667D01*
X80033809Y92606667D01*
X79938571Y92559048D01*
X79890952Y92511429D01*
X79843333Y92416191D01*
X79843333Y92225715D01*
X79890952Y92130477D01*
X79938571Y92082858D01*
X80033809Y92035239D01*
X79462380Y93463810D02*
X79462380Y93273334D01*
X79510000Y93178096D01*
X79557619Y93130477D01*
X79700476Y93035239D01*
X79890952Y92987620D01*
X80271904Y92987620D01*
X80367142Y93035239D01*
X80414761Y93082858D01*
X80462380Y93178096D01*
X80462380Y93368572D01*
X80414761Y93463810D01*
X80367142Y93511429D01*
X80271904Y93559048D01*
X80033809Y93559048D01*
X79938571Y93511429D01*
X79890952Y93463810D01*
X79843333Y93368572D01*
X79843333Y93178096D01*
X79890952Y93082858D01*
X79938571Y93035239D01*
X80033809Y92987620D01*
X95416666Y15098096D02*
X95416666Y15574286D01*
X95702380Y15002858D02*
X94702380Y15336191D01*
X95702380Y15669524D01*
X95702380Y16002858D02*
X95035714Y16002858D01*
X95226190Y16002858D02*
X95130952Y16050477D01*
X95083333Y16098096D01*
X95035714Y16193334D01*
X95035714Y16288572D01*
X95702380Y17050477D02*
X94702380Y17050477D01*
X95654761Y17050477D02*
X95702380Y16955239D01*
X95702380Y16764762D01*
X95654761Y16669524D01*
X95607142Y16621905D01*
X95511904Y16574286D01*
X95226190Y16574286D01*
X95130952Y16621905D01*
X95083333Y16669524D01*
X95035714Y16764762D01*
X95035714Y16955239D01*
X95083333Y17050477D01*
X95035714Y17955239D02*
X95702380Y17955239D01*
X95035714Y17526667D02*
X95559523Y17526667D01*
X95654761Y17574286D01*
X95702380Y17669524D01*
X95702380Y17812381D01*
X95654761Y17907620D01*
X95607142Y17955239D01*
X95702380Y18431429D02*
X95035714Y18431429D01*
X94702380Y18431429D02*
X94750000Y18383810D01*
X94797619Y18431429D01*
X94750000Y18479048D01*
X94702380Y18431429D01*
X94797619Y18431429D01*
X95035714Y18907620D02*
X95702380Y18907620D01*
X95130952Y18907620D02*
X95083333Y18955239D01*
X95035714Y19050477D01*
X95035714Y19193334D01*
X95083333Y19288572D01*
X95178571Y19336191D01*
X95702380Y19336191D01*
X95702380Y19955239D02*
X95654761Y19860000D01*
X95607142Y19812381D01*
X95511904Y19764762D01*
X95226190Y19764762D01*
X95130952Y19812381D01*
X95083333Y19860000D01*
X95035714Y19955239D01*
X95035714Y20098096D01*
X95083333Y20193334D01*
X95130952Y20240953D01*
X95226190Y20288572D01*
X95511904Y20288572D01*
X95607142Y20240953D01*
X95654761Y20193334D01*
X95702380Y20098096D01*
X95702380Y19955239D01*
X95702380Y21479048D02*
X95035714Y21479048D01*
X95130952Y21479048D02*
X95083333Y21526667D01*
X95035714Y21621905D01*
X95035714Y21764762D01*
X95083333Y21860000D01*
X95178571Y21907620D01*
X95702380Y21907620D01*
X95178571Y21907620D02*
X95083333Y21955239D01*
X95035714Y22050477D01*
X95035714Y22193334D01*
X95083333Y22288572D01*
X95178571Y22336191D01*
X95702380Y22336191D01*
X95702380Y22812381D02*
X95035714Y22812381D01*
X94702380Y22812381D02*
X94750000Y22764762D01*
X94797619Y22812381D01*
X94750000Y22860000D01*
X94702380Y22812381D01*
X94797619Y22812381D01*
X95035714Y23288572D02*
X95702380Y23288572D01*
X95130952Y23288572D02*
X95083333Y23336191D01*
X95035714Y23431429D01*
X95035714Y23574286D01*
X95083333Y23669524D01*
X95178571Y23717143D01*
X95702380Y23717143D01*
X95702380Y24193334D02*
X95035714Y24193334D01*
X94702380Y24193334D02*
X94750000Y24145715D01*
X94797619Y24193334D01*
X94750000Y24240953D01*
X94702380Y24193334D01*
X94797619Y24193334D01*
X95702380Y25431429D02*
X94702380Y25431429D01*
X94702380Y25812381D01*
X94750000Y25907620D01*
X94797619Y25955239D01*
X94892857Y26002858D01*
X95035714Y26002858D01*
X95130952Y25955239D01*
X95178571Y25907620D01*
X95226190Y25812381D01*
X95226190Y25431429D01*
X95702380Y27002858D02*
X95226190Y26669524D01*
X95702380Y26431429D02*
X94702380Y26431429D01*
X94702380Y26812381D01*
X94750000Y26907620D01*
X94797619Y26955239D01*
X94892857Y27002858D01*
X95035714Y27002858D01*
X95130952Y26955239D01*
X95178571Y26907620D01*
X95226190Y26812381D01*
X95226190Y26431429D01*
X94702380Y27621905D02*
X94702380Y27812381D01*
X94750000Y27907620D01*
X94845238Y28002858D01*
X95035714Y28050477D01*
X95369047Y28050477D01*
X95559523Y28002858D01*
X95654761Y27907620D01*
X95702380Y27812381D01*
X95702380Y27621905D01*
X95654761Y27526667D01*
X95559523Y27431429D01*
X95369047Y27383810D01*
X95035714Y27383810D01*
X94845238Y27431429D01*
X94750000Y27526667D01*
X94702380Y27621905D01*
X94702380Y29717143D02*
X94702380Y29240953D01*
X95178571Y29193334D01*
X95130952Y29240953D01*
X95083333Y29336191D01*
X95083333Y29574286D01*
X95130952Y29669524D01*
X95178571Y29717143D01*
X95273809Y29764762D01*
X95511904Y29764762D01*
X95607142Y29717143D01*
X95654761Y29669524D01*
X95702380Y29574286D01*
X95702380Y29336191D01*
X95654761Y29240953D01*
X95607142Y29193334D01*
X94702380Y30050477D02*
X95702380Y30383810D01*
X94702380Y30717143D01*
X46537619Y4349524D02*
X47537619Y4349524D01*
X46537619Y3873334D02*
X47537619Y3873334D01*
X46537619Y3301905D01*
X47537619Y3301905D01*
X47537619Y1587620D02*
X47537619Y2063810D01*
X47061428Y2111429D01*
X47109047Y2063810D01*
X47156666Y1968572D01*
X47156666Y1730477D01*
X47109047Y1635239D01*
X47061428Y1587620D01*
X46966190Y1540000D01*
X46728095Y1540000D01*
X46632857Y1587620D01*
X46585238Y1635239D01*
X46537619Y1730477D01*
X46537619Y1968572D01*
X46585238Y2063810D01*
X46632857Y2111429D01*
X47537619Y1254286D02*
X46537619Y920953D01*
X47537619Y587620D01*
X36901428Y4897143D02*
X36901428Y4563810D01*
X36377619Y4420953D02*
X36377619Y4897143D01*
X37377619Y4897143D01*
X37377619Y4420953D01*
X37377619Y4087620D02*
X36377619Y3420953D01*
X37377619Y3420953D02*
X36377619Y4087620D01*
X37377619Y3182858D02*
X37377619Y2611429D01*
X36377619Y2897143D02*
X37377619Y2897143D01*
X37377619Y1040000D02*
X37377619Y1516191D01*
X36901428Y1563810D01*
X36949047Y1516191D01*
X36996666Y1420953D01*
X36996666Y1182858D01*
X36949047Y1087620D01*
X36901428Y1040000D01*
X36806190Y992381D01*
X36568095Y992381D01*
X36472857Y1040000D01*
X36425238Y1087620D01*
X36377619Y1182858D01*
X36377619Y1420953D01*
X36425238Y1516191D01*
X36472857Y1563810D01*
X37377619Y706667D02*
X36377619Y373334D01*
X37377619Y40000D01*
X8437619Y5619524D02*
X9437619Y5619524D01*
X8437619Y5143334D02*
X9437619Y5143334D01*
X8437619Y4571905D01*
X9437619Y4571905D01*
X9437619Y2857620D02*
X9437619Y3333810D01*
X8961428Y3381429D01*
X9009047Y3333810D01*
X9056666Y3238572D01*
X9056666Y3000477D01*
X9009047Y2905239D01*
X8961428Y2857620D01*
X8866190Y2810000D01*
X8628095Y2810000D01*
X8532857Y2857620D01*
X8485238Y2905239D01*
X8437619Y3000477D01*
X8437619Y3238572D01*
X8485238Y3333810D01*
X8532857Y3381429D01*
X9437619Y2524286D02*
X8437619Y2190953D01*
X9437619Y1857620D01*
X20071428Y6857143D02*
X20071428Y6523810D01*
X19547619Y6380953D02*
X19547619Y6857143D01*
X20547619Y6857143D01*
X20547619Y6380953D01*
X20547619Y6047620D02*
X19547619Y5380953D01*
X20547619Y5380953D02*
X19547619Y6047620D01*
X20547619Y5142858D02*
X20547619Y4571429D01*
X19547619Y4857143D02*
X20547619Y4857143D01*
X20547619Y3000000D02*
X20547619Y3476191D01*
X20071428Y3523810D01*
X20119047Y3476191D01*
X20166666Y3380953D01*
X20166666Y3142858D01*
X20119047Y3047620D01*
X20071428Y3000000D01*
X19976190Y2952381D01*
X19738095Y2952381D01*
X19642857Y3000000D01*
X19595238Y3047620D01*
X19547619Y3142858D01*
X19547619Y3380953D01*
X19595238Y3476191D01*
X19642857Y3523810D01*
X20547619Y2666667D02*
X19547619Y2333334D01*
X20547619Y2000000D01*
X25844285Y59142381D02*
X26034761Y59142381D01*
X26130000Y59190000D01*
X26177619Y59237620D01*
X26272857Y59380477D01*
X26320476Y59570953D01*
X26320476Y59951905D01*
X26272857Y60047143D01*
X26225238Y60094762D01*
X26130000Y60142381D01*
X25939523Y60142381D01*
X25844285Y60094762D01*
X25796666Y60047143D01*
X25749047Y59951905D01*
X25749047Y59713810D01*
X25796666Y59618572D01*
X25844285Y59570953D01*
X25939523Y59523334D01*
X26130000Y59523334D01*
X26225238Y59570953D01*
X26272857Y59618572D01*
X26320476Y59713810D01*
X25368095Y59237620D02*
X25320476Y59190000D01*
X25225238Y59142381D01*
X24987142Y59142381D01*
X24891904Y59190000D01*
X24844285Y59237620D01*
X24796666Y59332858D01*
X24796666Y59428096D01*
X24844285Y59570953D01*
X25415714Y60142381D01*
X24796666Y60142381D01*
X24415714Y59237620D02*
X24368095Y59190000D01*
X24272857Y59142381D01*
X24034761Y59142381D01*
X23939523Y59190000D01*
X23891904Y59237620D01*
X23844285Y59332858D01*
X23844285Y59428096D01*
X23891904Y59570953D01*
X24463333Y60142381D01*
X23844285Y60142381D01*
X22939523Y59142381D02*
X23415714Y59142381D01*
X23463333Y59618572D01*
X23415714Y59570953D01*
X23320476Y59523334D01*
X23082380Y59523334D01*
X22987142Y59570953D01*
X22939523Y59618572D01*
X22891904Y59713810D01*
X22891904Y59951905D01*
X22939523Y60047143D01*
X22987142Y60094762D01*
X23082380Y60142381D01*
X23320476Y60142381D01*
X23415714Y60094762D01*
X23463333Y60047143D01*
X22034761Y59142381D02*
X22225238Y59142381D01*
X22320476Y59190000D01*
X22368095Y59237620D01*
X22463333Y59380477D01*
X22510952Y59570953D01*
X22510952Y59951905D01*
X22463333Y60047143D01*
X22415714Y60094762D01*
X22320476Y60142381D01*
X22130000Y60142381D01*
X22034761Y60094762D01*
X21987142Y60047143D01*
X21939523Y59951905D01*
X21939523Y59713810D01*
X21987142Y59618572D01*
X22034761Y59570953D01*
X22130000Y59523334D01*
X22320476Y59523334D01*
X22415714Y59570953D01*
X22463333Y59618572D01*
X22510952Y59713810D01*
X23232857Y19772381D02*
X23137619Y19772381D01*
X23042380Y19820000D01*
X22994761Y19867620D01*
X22947142Y19962858D01*
X22899523Y20153334D01*
X22899523Y20391429D01*
X22947142Y20581905D01*
X22994761Y20677143D01*
X23042380Y20724762D01*
X23137619Y20772381D01*
X23232857Y20772381D01*
X23328095Y20724762D01*
X23375714Y20677143D01*
X23423333Y20581905D01*
X23470952Y20391429D01*
X23470952Y20153334D01*
X23423333Y19962858D01*
X23375714Y19867620D01*
X23328095Y19820000D01*
X23232857Y19772381D01*
X22470952Y20677143D02*
X22423333Y20724762D01*
X22470952Y20772381D01*
X22518571Y20724762D01*
X22470952Y20677143D01*
X22470952Y20772381D01*
X21470952Y20772381D02*
X22042380Y20772381D01*
X21756666Y20772381D02*
X21756666Y19772381D01*
X21851904Y19915239D01*
X21947142Y20010477D01*
X22042380Y20058096D01*
X20613809Y20105715D02*
X20613809Y20772381D01*
X21042380Y20105715D02*
X21042380Y20629524D01*
X20994761Y20724762D01*
X20899523Y20772381D01*
X20756666Y20772381D01*
X20661428Y20724762D01*
X20613809Y20677143D01*
X19804285Y20248572D02*
X20137619Y20248572D01*
X20137619Y20772381D02*
X20137619Y19772381D01*
X19661428Y19772381D01*
X14692380Y74557143D02*
X14692380Y74652381D01*
X14740000Y74747620D01*
X14787619Y74795239D01*
X14882857Y74842858D01*
X15073333Y74890477D01*
X15311428Y74890477D01*
X15501904Y74842858D01*
X15597142Y74795239D01*
X15644761Y74747620D01*
X15692380Y74652381D01*
X15692380Y74557143D01*
X15644761Y74461905D01*
X15597142Y74414286D01*
X15501904Y74366667D01*
X15311428Y74319048D01*
X15073333Y74319048D01*
X14882857Y74366667D01*
X14787619Y74414286D01*
X14740000Y74461905D01*
X14692380Y74557143D01*
X15597142Y75319048D02*
X15644761Y75366667D01*
X15692380Y75319048D01*
X15644761Y75271429D01*
X15597142Y75319048D01*
X15692380Y75319048D01*
X15692380Y76319048D02*
X15692380Y75747620D01*
X15692380Y76033334D02*
X14692380Y76033334D01*
X14835238Y75938096D01*
X14930476Y75842858D01*
X14978095Y75747620D01*
X15025714Y77176191D02*
X15692380Y77176191D01*
X15025714Y76747620D02*
X15549523Y76747620D01*
X15644761Y76795239D01*
X15692380Y76890477D01*
X15692380Y77033334D01*
X15644761Y77128572D01*
X15597142Y77176191D01*
X15168571Y77985715D02*
X15168571Y77652381D01*
X15692380Y77652381D02*
X14692380Y77652381D01*
X14692380Y78128572D01*
X55332380Y93607143D02*
X55332380Y93702381D01*
X55380000Y93797620D01*
X55427619Y93845239D01*
X55522857Y93892858D01*
X55713333Y93940477D01*
X55951428Y93940477D01*
X56141904Y93892858D01*
X56237142Y93845239D01*
X56284761Y93797620D01*
X56332380Y93702381D01*
X56332380Y93607143D01*
X56284761Y93511905D01*
X56237142Y93464286D01*
X56141904Y93416667D01*
X55951428Y93369048D01*
X55713333Y93369048D01*
X55522857Y93416667D01*
X55427619Y93464286D01*
X55380000Y93511905D01*
X55332380Y93607143D01*
X56237142Y94369048D02*
X56284761Y94416667D01*
X56332380Y94369048D01*
X56284761Y94321429D01*
X56237142Y94369048D01*
X56332380Y94369048D01*
X56332380Y95369048D02*
X56332380Y94797620D01*
X56332380Y95083334D02*
X55332380Y95083334D01*
X55475238Y94988096D01*
X55570476Y94892858D01*
X55618095Y94797620D01*
X55665714Y96226191D02*
X56332380Y96226191D01*
X55665714Y95797620D02*
X56189523Y95797620D01*
X56284761Y95845239D01*
X56332380Y95940477D01*
X56332380Y96083334D01*
X56284761Y96178572D01*
X56237142Y96226191D01*
X55808571Y97035715D02*
X55808571Y96702381D01*
X56332380Y96702381D02*
X55332380Y96702381D01*
X55332380Y97178572D01*
D11*
X97615238Y89485715D02*
X96186666Y89485715D01*
X95900952Y89580953D01*
X95710476Y89771429D01*
X95615238Y90057143D01*
X95615238Y90247620D01*
X95615238Y87390477D02*
X96567619Y88057143D01*
X95615238Y88533334D02*
X97615238Y88533334D01*
X97615238Y87771429D01*
X97520000Y87580953D01*
X97424761Y87485715D01*
X97234285Y87390477D01*
X96948571Y87390477D01*
X96758095Y87485715D01*
X96662857Y87580953D01*
X96567619Y87771429D01*
X96567619Y88533334D01*
X96377142Y86533334D02*
X96377142Y85009524D01*
X95615238Y83009524D02*
X95615238Y84152381D01*
X95615238Y83580953D02*
X97615238Y83580953D01*
X97329523Y83771429D01*
X97139047Y83961905D01*
X97043809Y84152381D01*
X97615238Y81771429D02*
X97615238Y81580953D01*
X97520000Y81390477D01*
X97424761Y81295239D01*
X97234285Y81200000D01*
X96853333Y81104762D01*
X96377142Y81104762D01*
X95996190Y81200000D01*
X95805714Y81295239D01*
X95710476Y81390477D01*
X95615238Y81580953D01*
X95615238Y81771429D01*
X95710476Y81961905D01*
X95805714Y82057143D01*
X95996190Y82152381D01*
X96377142Y82247620D01*
X96853333Y82247620D01*
X97234285Y82152381D01*
X97424761Y82057143D01*
X97520000Y81961905D01*
X97615238Y81771429D01*
X97615238Y79866667D02*
X97615238Y79676191D01*
X97520000Y79485715D01*
X97424761Y79390477D01*
X97234285Y79295239D01*
X96853333Y79200000D01*
X96377142Y79200000D01*
X95996190Y79295239D01*
X95805714Y79390477D01*
X95710476Y79485715D01*
X95615238Y79676191D01*
X95615238Y79866667D01*
X95710476Y80057143D01*
X95805714Y80152381D01*
X95996190Y80247620D01*
X96377142Y80342858D01*
X96853333Y80342858D01*
X97234285Y80247620D01*
X97424761Y80152381D01*
X97520000Y80057143D01*
X97615238Y79866667D01*
X95424761Y78819048D02*
X95424761Y77295239D01*
X95710476Y76914286D02*
X95615238Y76628572D01*
X95615238Y76152381D01*
X95710476Y75961905D01*
X95805714Y75866667D01*
X95996190Y75771429D01*
X96186666Y75771429D01*
X96377142Y75866667D01*
X96472380Y75961905D01*
X96567619Y76152381D01*
X96662857Y76533334D01*
X96758095Y76723810D01*
X96853333Y76819048D01*
X97043809Y76914286D01*
X97234285Y76914286D01*
X97424761Y76819048D01*
X97520000Y76723810D01*
X97615238Y76533334D01*
X97615238Y76057143D01*
X97520000Y75771429D01*
X95615238Y74914286D02*
X97615238Y74914286D01*
X97615238Y74438096D01*
X97520000Y74152381D01*
X97329523Y73961905D01*
X97139047Y73866667D01*
X96758095Y73771429D01*
X96472380Y73771429D01*
X96091428Y73866667D01*
X95900952Y73961905D01*
X95710476Y74152381D01*
X95615238Y74438096D01*
X95615238Y74914286D01*
X95615238Y70247620D02*
X96567619Y70914286D01*
X95615238Y71390477D02*
X97615238Y71390477D01*
X97615238Y70628572D01*
X97520000Y70438096D01*
X97424761Y70342858D01*
X97234285Y70247620D01*
X96948571Y70247620D01*
X96758095Y70342858D01*
X96662857Y70438096D01*
X96567619Y70628572D01*
X96567619Y71390477D01*
X95710476Y68628572D02*
X95615238Y68819048D01*
X95615238Y69200000D01*
X95710476Y69390477D01*
X95900952Y69485715D01*
X96662857Y69485715D01*
X96853333Y69390477D01*
X96948571Y69200000D01*
X96948571Y68819048D01*
X96853333Y68628572D01*
X96662857Y68533334D01*
X96472380Y68533334D01*
X96281904Y69485715D01*
X96948571Y67866667D02*
X95615238Y67390477D01*
X96948571Y66914286D01*
X95615238Y65104762D02*
X95615238Y66247620D01*
X95615238Y65676191D02*
X97615238Y65676191D01*
X97329523Y65866667D01*
X97139047Y66057143D01*
X97043809Y66247620D01*
X95805714Y64247620D02*
X95710476Y64152381D01*
X95615238Y64247620D01*
X95710476Y64342858D01*
X95805714Y64247620D01*
X95615238Y64247620D01*
X97615238Y63485715D02*
X97615238Y62247620D01*
X96853333Y62914286D01*
X96853333Y62628572D01*
X96758095Y62438096D01*
X96662857Y62342858D01*
X96472380Y62247620D01*
X95996190Y62247620D01*
X95805714Y62342858D01*
X95710476Y62438096D01*
X95615238Y62628572D01*
X95615238Y63200001D01*
X95710476Y63390477D01*
X95805714Y63485715D01*
D12*
X44252000Y63702000D02*
X48492000Y63702000D01*
X44252000Y60962000D02*
X48492000Y60962000D01*
X44252000Y63702000D02*
X44252000Y62997000D01*
X44252000Y61667000D02*
X44252000Y60962000D01*
X48492000Y63702000D02*
X48492000Y62997000D01*
X48492000Y61667000D02*
X48492000Y60962000D01*
X58360000Y78466000D02*
X58360000Y73406000D01*
X94040000Y78466000D02*
X58360000Y78466000D01*
X94040000Y66346000D02*
X94040000Y78466000D01*
X58360000Y66346000D02*
X94040000Y66346000D01*
X58360000Y71406000D02*
X58360000Y66346000D01*
X58360000Y73406000D02*
G75*
G02*
X58360000Y71406000I0J-1000000D01*
G01*
X48027000Y8932000D02*
X53087000Y8932000D01*
X53087000Y8932000D02*
X53087000Y59852000D01*
X53087000Y59852000D02*
X40967000Y59852000D01*
X40967000Y59852000D02*
X40967000Y8932000D01*
X40967000Y8932000D02*
X46027000Y8932000D01*
X46027000Y8932000D02*
G75*
G02*
X48027000Y8932000I1000000J0D01*
G01*
X57250000Y74881000D02*
X57250000Y70641000D01*
X54510000Y74881000D02*
X54510000Y70641000D01*
X57250000Y74881000D02*
X56545000Y74881000D01*
X55215000Y74881000D02*
X54510000Y74881000D01*
X57250000Y70641000D02*
X56545000Y70641000D01*
X55215000Y70641000D02*
X54510000Y70641000D01*
X10220000Y81340000D02*
X7560000Y81340000D01*
X10220000Y20320000D02*
X10220000Y81340000D01*
X7560000Y20320000D02*
X7560000Y81340000D01*
X10220000Y20320000D02*
X7560000Y20320000D01*
X10220000Y19050000D02*
X10220000Y17720000D01*
X10220000Y17720000D02*
X8890000Y17720000D01*
X68150000Y60100000D02*
X68150000Y36400000D01*
X99950000Y60100000D02*
X68150000Y60100000D01*
X99950000Y36400000D02*
X99950000Y60100000D01*
X68150000Y36400000D02*
X99950000Y36400000D01*
X68520000Y59750000D02*
X69850000Y59750000D01*
X68520000Y58420000D02*
X68520000Y59750000D01*
X68520000Y57150000D02*
X71180000Y57150000D01*
X71180000Y57150000D02*
X71180000Y36770000D01*
X68520000Y57150000D02*
X68520000Y36770000D01*
X68520000Y36770000D02*
X71180000Y36770000D01*
X94107000Y13843000D02*
X94107000Y31877000D01*
X60833000Y13843000D02*
X94107000Y13843000D01*
X88900000Y29210000D02*
X60833000Y29210000D01*
X88900000Y29210000D02*
X88900000Y31877000D01*
X60833000Y31877000D02*
X60833000Y13840000D01*
X91440000Y16510000D02*
X60833000Y16510000D01*
X91440000Y16510000D02*
X91440000Y13840000D01*
X94107000Y31877000D02*
X91440000Y31877000D01*
X88900000Y31877000D02*
X60833000Y31877000D01*
X91440000Y29210000D02*
X91440000Y31877000D01*
X88900000Y29210000D02*
X91440000Y29210000D01*
X60960000Y55305000D02*
X62290000Y55305000D01*
X62290000Y55305000D02*
X62290000Y53975000D01*
X62290000Y52705000D02*
X62290000Y39945000D01*
X59630000Y39945000D02*
X62290000Y39945000D01*
X59630000Y52705000D02*
X59630000Y39945000D01*
X59630000Y52705000D02*
X62290000Y52705000D01*
X24530000Y21690000D02*
X28770000Y21690000D01*
X24530000Y18950000D02*
X28770000Y18950000D01*
X24530000Y21690000D02*
X24530000Y20985000D01*
X24530000Y19655000D02*
X24530000Y18950000D01*
X28770000Y21690000D02*
X28770000Y20985000D01*
X28770000Y19655000D02*
X28770000Y18950000D01*
X56545000Y92270000D02*
X57250000Y92270000D01*
X54510000Y92270000D02*
X55215000Y92270000D01*
X56545000Y88030000D02*
X57250000Y88030000D01*
X54510000Y88030000D02*
X55215000Y88030000D01*
X57250000Y88030000D02*
X57250000Y92270000D01*
X54510000Y88030000D02*
X54510000Y92270000D01*
X5140000Y17720000D02*
X3810000Y17720000D01*
X5140000Y19050000D02*
X5140000Y17720000D01*
X5140000Y20320000D02*
X2480000Y20320000D01*
X2480000Y20320000D02*
X2480000Y81340000D01*
X5140000Y20320000D02*
X5140000Y81340000D01*
X5140000Y81340000D02*
X2480000Y81340000D01*
X24860000Y82450000D02*
X24860000Y82780000D01*
X18320000Y82450000D02*
X24860000Y82450000D01*
X18320000Y82780000D02*
X18320000Y82450000D01*
X24860000Y85190000D02*
X24860000Y84860000D01*
X18320000Y85190000D02*
X24860000Y85190000D01*
X18320000Y84860000D02*
X18320000Y85190000D01*
X29750000Y84860000D02*
X29750000Y85190000D01*
X29750000Y85190000D02*
X36290000Y85190000D01*
X36290000Y85190000D02*
X36290000Y84860000D01*
X29750000Y82780000D02*
X29750000Y82450000D01*
X29750000Y82450000D02*
X36290000Y82450000D01*
X36290000Y82450000D02*
X36290000Y82780000D01*
X46450000Y82450000D02*
X46450000Y82780000D01*
X39910000Y82450000D02*
X46450000Y82450000D01*
X39910000Y82780000D02*
X39910000Y82450000D01*
X46450000Y85190000D02*
X46450000Y84860000D01*
X39910000Y85190000D02*
X46450000Y85190000D01*
X39910000Y84860000D02*
X39910000Y85190000D01*
X24670000Y81050000D02*
X24670000Y81380000D01*
X24670000Y81380000D02*
X31210000Y81380000D01*
X31210000Y81380000D02*
X31210000Y81050000D01*
X24670000Y78970000D02*
X24670000Y78640000D01*
X24670000Y78640000D02*
X31210000Y78640000D01*
X31210000Y78640000D02*
X31210000Y78970000D01*
X42640000Y78640000D02*
X42640000Y78970000D01*
X36100000Y78640000D02*
X42640000Y78640000D01*
X36100000Y78970000D02*
X36100000Y78640000D01*
X42640000Y81380000D02*
X42640000Y81050000D01*
X36100000Y81380000D02*
X42640000Y81380000D01*
X36100000Y81050000D02*
X36100000Y81380000D01*
X17720000Y73370000D02*
X17720000Y72120000D01*
X48320000Y73370000D02*
X17720000Y73370000D01*
X48320000Y68870000D02*
X48320000Y73370000D01*
X17720000Y68870000D02*
X48320000Y68870000D01*
X17720000Y70120000D02*
X17720000Y68870000D01*
X17720000Y72120000D02*
G75*
G02*
X17720000Y70120000I0J-1000000D01*
G01*
X58360000Y92420000D02*
X58360000Y91170000D01*
X78800000Y92420000D02*
X58360000Y92420000D01*
X78800000Y87920000D02*
X78800000Y92420000D01*
X58360000Y87920000D02*
X78800000Y87920000D01*
X58360000Y89170000D02*
X58360000Y87920000D01*
X58360000Y91170000D02*
G75*
G02*
X58360000Y89170000I0J-1000000D01*
G01*
X20610000Y22800000D02*
X25670000Y22800000D01*
X20610000Y58480000D02*
X20610000Y22800000D01*
X32730000Y58480000D02*
X20610000Y58480000D01*
X32730000Y22800000D02*
X32730000Y58480000D01*
X27670000Y22800000D02*
X32730000Y22800000D01*
X25670000Y22800000D02*
G75*
G02*
X27670000Y22800000I1000000J0D01*
G01*
X15300000Y8720000D02*
X10100000Y8720000D01*
X10100000Y8720000D02*
X10100000Y6060000D01*
X10100000Y6060000D02*
X15300000Y6060000D01*
X15300000Y6060000D02*
X15300000Y8720000D01*
X14350000Y6060000D02*
X14350000Y60000D01*
X14350000Y60000D02*
X13590000Y60000D01*
X13590000Y60000D02*
X13590000Y6060000D01*
X14290000Y6060000D02*
X14290000Y60000D01*
X14170000Y6060000D02*
X14170000Y60000D01*
X14050000Y6060000D02*
X14050000Y60000D01*
X13930000Y6060000D02*
X13930000Y60000D01*
X13810000Y6060000D02*
X13810000Y60000D01*
X13690000Y6060000D02*
X13690000Y60000D01*
X14350000Y9050000D02*
X14350000Y8720000D01*
X13590000Y9050000D02*
X13590000Y8720000D01*
X12700000Y8720000D02*
X12700000Y6060000D01*
X11810000Y6060000D02*
X11810000Y60000D01*
X11810000Y60000D02*
X11050000Y60000D01*
X11050000Y60000D02*
X11050000Y6060000D01*
X11810000Y9117071D02*
X11810000Y8720000D01*
X11050000Y9117071D02*
X11050000Y8720000D01*
X13970000Y11430000D02*
X15240000Y11430000D01*
X15240000Y11430000D02*
X15240000Y10160000D01*
X22250000Y15100000D02*
X21200000Y15100000D01*
X21200000Y14050000D02*
X21200000Y15100000D01*
X30600000Y9000000D02*
X30600000Y200000D01*
X30600000Y200000D02*
X21400000Y200000D01*
X27900000Y14900000D02*
X30600000Y14900000D01*
X30600000Y14900000D02*
X30600000Y13000000D01*
X21400000Y200000D02*
X21400000Y14900000D01*
X21400000Y14900000D02*
X24000000Y14900000D01*
X38040000Y3870000D02*
X38040000Y1210000D01*
X43180000Y3870000D02*
X38040000Y3870000D01*
X43180000Y1210000D02*
X38040000Y1210000D01*
X43180000Y3870000D02*
X43180000Y1210000D01*
X44450000Y3870000D02*
X45780000Y3870000D01*
X45780000Y3870000D02*
X45780000Y2540000D01*
X14575000Y69020000D02*
X13870000Y69020000D01*
X16610000Y69020000D02*
X15905000Y69020000D01*
X14575000Y73260000D02*
X13870000Y73260000D01*
X16610000Y73260000D02*
X15905000Y73260000D01*
X13870000Y73260000D02*
X13870000Y69020000D01*
X16610000Y73260000D02*
X16610000Y69020000D01*
X58500000Y3790000D02*
G75*
G03*
X58500000Y3790000I-2620000J0D01*
G01*
X53300000Y3790000D02*
X58460000Y3790000D01*
X53300000Y3830000D02*
X58460000Y3830000D01*
X53301000Y3870000D02*
X58459000Y3870000D01*
X53302000Y3910000D02*
X58458000Y3910000D01*
X53304000Y3950000D02*
X58456000Y3950000D01*
X53307000Y3990000D02*
X58453000Y3990000D01*
X53311000Y4030000D02*
X54840000Y4030000D01*
X56920000Y4030000D02*
X58449000Y4030000D01*
X53315000Y4070000D02*
X54840000Y4070000D01*
X56920000Y4070000D02*
X58445000Y4070000D01*
X53319000Y4110000D02*
X54840000Y4110000D01*
X56920000Y4110000D02*
X58441000Y4110000D01*
X53324000Y4150000D02*
X54840000Y4150000D01*
X56920000Y4150000D02*
X58436000Y4150000D01*
X53330000Y4190000D02*
X54840000Y4190000D01*
X56920000Y4190000D02*
X58430000Y4190000D01*
X53337000Y4230000D02*
X54840000Y4230000D01*
X56920000Y4230000D02*
X58423000Y4230000D01*
X53344000Y4270000D02*
X54840000Y4270000D01*
X56920000Y4270000D02*
X58416000Y4270000D01*
X53352000Y4310000D02*
X54840000Y4310000D01*
X56920000Y4310000D02*
X58408000Y4310000D01*
X53360000Y4350000D02*
X54840000Y4350000D01*
X56920000Y4350000D02*
X58400000Y4350000D01*
X53369000Y4390000D02*
X54840000Y4390000D01*
X56920000Y4390000D02*
X58391000Y4390000D01*
X53379000Y4430000D02*
X54840000Y4430000D01*
X56920000Y4430000D02*
X58381000Y4430000D01*
X53389000Y4470000D02*
X54840000Y4470000D01*
X56920000Y4470000D02*
X58371000Y4470000D01*
X53400000Y4511000D02*
X54840000Y4511000D01*
X56920000Y4511000D02*
X58360000Y4511000D01*
X53412000Y4551000D02*
X54840000Y4551000D01*
X56920000Y4551000D02*
X58348000Y4551000D01*
X53425000Y4591000D02*
X54840000Y4591000D01*
X56920000Y4591000D02*
X58335000Y4591000D01*
X53438000Y4631000D02*
X54840000Y4631000D01*
X56920000Y4631000D02*
X58322000Y4631000D01*
X53452000Y4671000D02*
X54840000Y4671000D01*
X56920000Y4671000D02*
X58308000Y4671000D01*
X53466000Y4711000D02*
X54840000Y4711000D01*
X56920000Y4711000D02*
X58294000Y4711000D01*
X53482000Y4751000D02*
X54840000Y4751000D01*
X56920000Y4751000D02*
X58278000Y4751000D01*
X53498000Y4791000D02*
X54840000Y4791000D01*
X56920000Y4791000D02*
X58262000Y4791000D01*
X53515000Y4831000D02*
X54840000Y4831000D01*
X56920000Y4831000D02*
X58245000Y4831000D01*
X53532000Y4871000D02*
X54840000Y4871000D01*
X56920000Y4871000D02*
X58228000Y4871000D01*
X53551000Y4911000D02*
X54840000Y4911000D01*
X56920000Y4911000D02*
X58209000Y4911000D01*
X53570000Y4951000D02*
X54840000Y4951000D01*
X56920000Y4951000D02*
X58190000Y4951000D01*
X53590000Y4991000D02*
X54840000Y4991000D01*
X56920000Y4991000D02*
X58170000Y4991000D01*
X53612000Y5031000D02*
X54840000Y5031000D01*
X56920000Y5031000D02*
X58148000Y5031000D01*
X53633000Y5071000D02*
X54840000Y5071000D01*
X56920000Y5071000D02*
X58127000Y5071000D01*
X53656000Y5111000D02*
X54840000Y5111000D01*
X56920000Y5111000D02*
X58104000Y5111000D01*
X53680000Y5151000D02*
X54840000Y5151000D01*
X56920000Y5151000D02*
X58080000Y5151000D01*
X53705000Y5191000D02*
X54840000Y5191000D01*
X56920000Y5191000D02*
X58055000Y5191000D01*
X53731000Y5231000D02*
X54840000Y5231000D01*
X56920000Y5231000D02*
X58029000Y5231000D01*
X53758000Y5271000D02*
X54840000Y5271000D01*
X56920000Y5271000D02*
X58002000Y5271000D01*
X53785000Y5311000D02*
X54840000Y5311000D01*
X56920000Y5311000D02*
X57975000Y5311000D01*
X53815000Y5351000D02*
X54840000Y5351000D01*
X56920000Y5351000D02*
X57945000Y5351000D01*
X53845000Y5391000D02*
X54840000Y5391000D01*
X56920000Y5391000D02*
X57915000Y5391000D01*
X53876000Y5431000D02*
X54840000Y5431000D01*
X56920000Y5431000D02*
X57884000Y5431000D01*
X53909000Y5471000D02*
X54840000Y5471000D01*
X56920000Y5471000D02*
X57851000Y5471000D01*
X53943000Y5511000D02*
X54840000Y5511000D01*
X56920000Y5511000D02*
X57817000Y5511000D01*
X53979000Y5551000D02*
X54840000Y5551000D01*
X56920000Y5551000D02*
X57781000Y5551000D01*
X54016000Y5591000D02*
X54840000Y5591000D01*
X56920000Y5591000D02*
X57744000Y5591000D01*
X54054000Y5631000D02*
X54840000Y5631000D01*
X56920000Y5631000D02*
X57706000Y5631000D01*
X54095000Y5671000D02*
X54840000Y5671000D01*
X56920000Y5671000D02*
X57665000Y5671000D01*
X54137000Y5711000D02*
X54840000Y5711000D01*
X56920000Y5711000D02*
X57623000Y5711000D01*
X54181000Y5751000D02*
X54840000Y5751000D01*
X56920000Y5751000D02*
X57579000Y5751000D01*
X54227000Y5791000D02*
X54840000Y5791000D01*
X56920000Y5791000D02*
X57533000Y5791000D01*
X54275000Y5831000D02*
X54840000Y5831000D01*
X56920000Y5831000D02*
X57485000Y5831000D01*
X54326000Y5871000D02*
X54840000Y5871000D01*
X56920000Y5871000D02*
X57434000Y5871000D01*
X54380000Y5911000D02*
X54840000Y5911000D01*
X56920000Y5911000D02*
X57380000Y5911000D01*
X54437000Y5951000D02*
X54840000Y5951000D01*
X56920000Y5951000D02*
X57323000Y5951000D01*
X54497000Y5991000D02*
X54840000Y5991000D01*
X56920000Y5991000D02*
X57263000Y5991000D01*
X54561000Y6031000D02*
X54840000Y6031000D01*
X56920000Y6031000D02*
X57199000Y6031000D01*
X54629000Y6071000D02*
X54840000Y6071000D01*
X56920000Y6071000D02*
X57131000Y6071000D01*
X54702000Y6111000D02*
X57058000Y6111000D01*
X54782000Y6151000D02*
X56978000Y6151000D01*
X54869000Y6191000D02*
X56891000Y6191000D01*
X54965000Y6231000D02*
X56795000Y6231000D01*
X55075000Y6271000D02*
X56685000Y6271000D01*
X55203000Y6311000D02*
X56557000Y6311000D01*
X55362000Y6351000D02*
X56398000Y6351000D01*
X55596000Y6391000D02*
X56164000Y6391000D01*
X54405000Y985225D02*
X54405000Y1485225D01*
X54155000Y1235225D02*
X54655000Y1235225D01*
X48025000Y99980000D02*
X48025000Y87640000D01*
X48025000Y87640000D02*
X17055000Y87640000D01*
X17055000Y87640000D02*
X17055000Y99980000D01*
X38330000Y86745662D02*
X37830000Y86745662D01*
X37830000Y86745662D02*
X38080000Y87178675D01*
X38080000Y87178675D02*
X38330000Y86745662D01*
X72450000Y8720000D02*
X69790000Y8720000D01*
X69790000Y8720000D02*
X69790000Y6060000D01*
X69790000Y6060000D02*
X72450000Y6060000D01*
X72450000Y6060000D02*
X72450000Y8720000D01*
X71500000Y6060000D02*
X71500000Y60000D01*
X71500000Y60000D02*
X70740000Y60000D01*
X70740000Y60000D02*
X70740000Y6060000D01*
X71440000Y6060000D02*
X71440000Y60000D01*
X71320000Y6060000D02*
X71320000Y60000D01*
X71200000Y6060000D02*
X71200000Y60000D01*
X71080000Y6060000D02*
X71080000Y60000D01*
X70960000Y6060000D02*
X70960000Y60000D01*
X70840000Y6060000D02*
X70840000Y60000D01*
X71500000Y9050000D02*
X71500000Y8720000D01*
X70740000Y9050000D02*
X70740000Y8720000D01*
X71120000Y11430000D02*
X72390000Y11430000D01*
X72390000Y11430000D02*
X72390000Y10160000D01*
X78470000Y2120000D02*
X82970000Y2120000D01*
X77220000Y6120000D02*
X77220000Y4620000D01*
X82970000Y8620000D02*
X78470000Y8620000D01*
X84220000Y4620000D02*
X84220000Y6120000D01*
D10*
X42748666Y62689143D02*
X42796285Y62736762D01*
X42939142Y62784381D01*
X43034380Y62784381D01*
X43177238Y62736762D01*
X43272476Y62641524D01*
X43320095Y62546286D01*
X43367714Y62355810D01*
X43367714Y62212953D01*
X43320095Y62022477D01*
X43272476Y61927239D01*
X43177238Y61832000D01*
X43034380Y61784381D01*
X42939142Y61784381D01*
X42796285Y61832000D01*
X42748666Y61879620D01*
X41843904Y61784381D02*
X42320095Y61784381D01*
X42367714Y62260572D01*
X42320095Y62212953D01*
X42224857Y62165334D01*
X41986761Y62165334D01*
X41891523Y62212953D01*
X41843904Y62260572D01*
X41796285Y62355810D01*
X41796285Y62593905D01*
X41843904Y62689143D01*
X41891523Y62736762D01*
X41986761Y62784381D01*
X42224857Y62784381D01*
X42320095Y62736762D01*
X42367714Y62689143D01*
X62952380Y71344096D02*
X63761904Y71344096D01*
X63857142Y71391715D01*
X63904761Y71439334D01*
X63952380Y71534572D01*
X63952380Y71725048D01*
X63904761Y71820286D01*
X63857142Y71867905D01*
X63761904Y71915524D01*
X62952380Y71915524D01*
X62952380Y72296477D02*
X62952380Y72915524D01*
X63333333Y72582191D01*
X63333333Y72725048D01*
X63380952Y72820286D01*
X63428571Y72867905D01*
X63523809Y72915524D01*
X63761904Y72915524D01*
X63857142Y72867905D01*
X63904761Y72820286D01*
X63952380Y72725048D01*
X63952380Y72439334D01*
X63904761Y72344096D01*
X63857142Y72296477D01*
X52831904Y7072381D02*
X52831904Y7881905D01*
X52784285Y7977143D01*
X52736666Y8024762D01*
X52641428Y8072381D01*
X52450952Y8072381D01*
X52355714Y8024762D01*
X52308095Y7977143D01*
X52260476Y7881905D01*
X52260476Y7072381D01*
X51308095Y7072381D02*
X51784285Y7072381D01*
X51831904Y7548572D01*
X51784285Y7500953D01*
X51689047Y7453334D01*
X51450952Y7453334D01*
X51355714Y7500953D01*
X51308095Y7548572D01*
X51260476Y7643810D01*
X51260476Y7881905D01*
X51308095Y7977143D01*
X51355714Y8024762D01*
X51450952Y8072381D01*
X51689047Y8072381D01*
X51784285Y8024762D01*
X51831904Y7977143D01*
X56872142Y68354334D02*
X56919761Y68306715D01*
X56967380Y68163858D01*
X56967380Y68068620D01*
X56919761Y67925762D01*
X56824523Y67830524D01*
X56729285Y67782905D01*
X56538809Y67735286D01*
X56395952Y67735286D01*
X56205476Y67782905D01*
X56110238Y67830524D01*
X56015000Y67925762D01*
X55967380Y68068620D01*
X55967380Y68163858D01*
X56015000Y68306715D01*
X56062619Y68354334D01*
X56062619Y68735286D02*
X56015000Y68782905D01*
X55967380Y68878143D01*
X55967380Y69116239D01*
X56015000Y69211477D01*
X56062619Y69259096D01*
X56157857Y69306715D01*
X56253095Y69306715D01*
X56395952Y69259096D01*
X56967380Y68687667D01*
X56967380Y69306715D01*
X9437619Y17053334D02*
X8723333Y17053334D01*
X8580476Y17100953D01*
X8485238Y17196191D01*
X8437619Y17339048D01*
X8437619Y17434286D01*
X8437619Y16053334D02*
X8437619Y16624762D01*
X8437619Y16339048D02*
X9437619Y16339048D01*
X9294761Y16434286D01*
X9199523Y16529524D01*
X9151904Y16624762D01*
X85812380Y40941667D02*
X86526666Y40941667D01*
X86669523Y40894048D01*
X86764761Y40798810D01*
X86812380Y40655953D01*
X86812380Y40560715D01*
X85812380Y41846429D02*
X85812380Y41655953D01*
X85860000Y41560715D01*
X85907619Y41513096D01*
X86050476Y41417858D01*
X86240952Y41370239D01*
X86621904Y41370239D01*
X86717142Y41417858D01*
X86764761Y41465477D01*
X86812380Y41560715D01*
X86812380Y41751191D01*
X86764761Y41846429D01*
X86717142Y41894048D01*
X86621904Y41941667D01*
X86383809Y41941667D01*
X86288571Y41894048D01*
X86240952Y41846429D01*
X86193333Y41751191D01*
X86193333Y41560715D01*
X86240952Y41465477D01*
X86288571Y41417858D01*
X86383809Y41370239D01*
X90336666Y40998096D02*
X90336666Y41474286D01*
X90622380Y40902858D02*
X89622380Y41236191D01*
X90622380Y41569524D01*
X90098571Y41902858D02*
X90098571Y42236191D01*
X90622380Y42379048D02*
X90622380Y41902858D01*
X89622380Y41902858D01*
X89622380Y42379048D01*
X90241428Y42807620D02*
X90241428Y43569524D01*
X90622380Y44045715D02*
X89955714Y44045715D01*
X90050952Y44045715D02*
X90003333Y44093334D01*
X89955714Y44188572D01*
X89955714Y44331429D01*
X90003333Y44426667D01*
X90098571Y44474286D01*
X90622380Y44474286D01*
X90098571Y44474286D02*
X90003333Y44521905D01*
X89955714Y44617143D01*
X89955714Y44760000D01*
X90003333Y44855239D01*
X90098571Y44902858D01*
X90622380Y44902858D01*
X90622380Y45379048D02*
X89955714Y45379048D01*
X89622380Y45379048D02*
X89670000Y45331429D01*
X89717619Y45379048D01*
X89670000Y45426667D01*
X89622380Y45379048D01*
X89717619Y45379048D01*
X90574761Y46283810D02*
X90622380Y46188572D01*
X90622380Y45998096D01*
X90574761Y45902858D01*
X90527142Y45855239D01*
X90431904Y45807620D01*
X90146190Y45807620D01*
X90050952Y45855239D01*
X90003333Y45902858D01*
X89955714Y45998096D01*
X89955714Y46188572D01*
X90003333Y46283810D01*
X90622380Y46712381D02*
X89955714Y46712381D01*
X90146190Y46712381D02*
X90050952Y46760000D01*
X90003333Y46807620D01*
X89955714Y46902858D01*
X89955714Y46998096D01*
X90622380Y47474286D02*
X90574761Y47379048D01*
X90527142Y47331429D01*
X90431904Y47283810D01*
X90146190Y47283810D01*
X90050952Y47331429D01*
X90003333Y47379048D01*
X89955714Y47474286D01*
X89955714Y47617143D01*
X90003333Y47712381D01*
X90050952Y47760000D01*
X90146190Y47807620D01*
X90431904Y47807620D01*
X90527142Y47760000D01*
X90574761Y47712381D01*
X90622380Y47617143D01*
X90622380Y47474286D01*
X90574761Y48188572D02*
X90622380Y48331429D01*
X90622380Y48569524D01*
X90574761Y48664762D01*
X90527142Y48712381D01*
X90431904Y48760000D01*
X90336666Y48760000D01*
X90241428Y48712381D01*
X90193809Y48664762D01*
X90146190Y48569524D01*
X90098571Y48379048D01*
X90050952Y48283810D01*
X90003333Y48236191D01*
X89908095Y48188572D01*
X89812857Y48188572D01*
X89717619Y48236191D01*
X89670000Y48283810D01*
X89622380Y48379048D01*
X89622380Y48617143D01*
X89670000Y48760000D01*
X90622380Y49188572D02*
X89622380Y49188572D01*
X89622380Y49426667D01*
X89670000Y49569524D01*
X89765238Y49664762D01*
X89860476Y49712381D01*
X90050952Y49760000D01*
X90193809Y49760000D01*
X90384285Y49712381D01*
X90479523Y49664762D01*
X90574761Y49569524D01*
X90622380Y49426667D01*
X90622380Y49188572D01*
X90241428Y50188572D02*
X90241428Y50950477D01*
X90622380Y51902858D02*
X90622380Y51426667D01*
X89622380Y51426667D01*
X90622380Y52712381D02*
X90622380Y52236191D01*
X89622380Y52236191D01*
X90527142Y53617143D02*
X90574761Y53569524D01*
X90622380Y53426667D01*
X90622380Y53331429D01*
X90574761Y53188572D01*
X90479523Y53093334D01*
X90384285Y53045715D01*
X90193809Y52998096D01*
X90050952Y52998096D01*
X89860476Y53045715D01*
X89765238Y53093334D01*
X89670000Y53188572D01*
X89622380Y53331429D01*
X89622380Y53426667D01*
X89670000Y53569524D01*
X89717619Y53617143D01*
X90622380Y54045715D02*
X89622380Y54045715D01*
X90622380Y54617143D01*
X89622380Y54617143D01*
X89622380Y54950477D02*
X90622380Y55283810D01*
X89622380Y55617143D01*
X94829380Y12192096D02*
X95638904Y12192096D01*
X95734142Y12239715D01*
X95781761Y12287334D01*
X95829380Y12382572D01*
X95829380Y12573048D01*
X95781761Y12668286D01*
X95734142Y12715905D01*
X95638904Y12763524D01*
X94829380Y12763524D01*
X94829380Y13668286D02*
X94829380Y13477810D01*
X94877000Y13382572D01*
X94924619Y13334953D01*
X95067476Y13239715D01*
X95257952Y13192096D01*
X95638904Y13192096D01*
X95734142Y13239715D01*
X95781761Y13287334D01*
X95829380Y13382572D01*
X95829380Y13573048D01*
X95781761Y13668286D01*
X95734142Y13715905D01*
X95638904Y13763524D01*
X95400809Y13763524D01*
X95305571Y13715905D01*
X95257952Y13668286D01*
X95210333Y13573048D01*
X95210333Y13382572D01*
X95257952Y13287334D01*
X95305571Y13239715D01*
X95400809Y13192096D01*
X60412380Y37766667D02*
X61126666Y37766667D01*
X61269523Y37719048D01*
X61364761Y37623810D01*
X61412380Y37480953D01*
X61412380Y37385715D01*
X60412380Y38147620D02*
X60412380Y38814286D01*
X61412380Y38385715D01*
X30646666Y20677143D02*
X30694285Y20724762D01*
X30837142Y20772381D01*
X30932380Y20772381D01*
X31075238Y20724762D01*
X31170476Y20629524D01*
X31218095Y20534286D01*
X31265714Y20343810D01*
X31265714Y20200953D01*
X31218095Y20010477D01*
X31170476Y19915239D01*
X31075238Y19820000D01*
X30932380Y19772381D01*
X30837142Y19772381D01*
X30694285Y19820000D01*
X30646666Y19867620D01*
X30313333Y19772381D02*
X29694285Y19772381D01*
X30027619Y20153334D01*
X29884761Y20153334D01*
X29789523Y20200953D01*
X29741904Y20248572D01*
X29694285Y20343810D01*
X29694285Y20581905D01*
X29741904Y20677143D01*
X29789523Y20724762D01*
X29884761Y20772381D01*
X30170476Y20772381D01*
X30265714Y20724762D01*
X30313333Y20677143D01*
X56237142Y86193334D02*
X56284761Y86145715D01*
X56332380Y86002858D01*
X56332380Y85907620D01*
X56284761Y85764762D01*
X56189523Y85669524D01*
X56094285Y85621905D01*
X55903809Y85574286D01*
X55760952Y85574286D01*
X55570476Y85621905D01*
X55475238Y85669524D01*
X55380000Y85764762D01*
X55332380Y85907620D01*
X55332380Y86002858D01*
X55380000Y86145715D01*
X55427619Y86193334D01*
X55665714Y87050477D02*
X56332380Y87050477D01*
X55284761Y86812381D02*
X55999047Y86574286D01*
X55999047Y87193334D01*
X4357619Y17053334D02*
X3643333Y17053334D01*
X3500476Y17100953D01*
X3405238Y17196191D01*
X3357619Y17339048D01*
X3357619Y17434286D01*
X4262380Y16624762D02*
X4310000Y16577143D01*
X4357619Y16481905D01*
X4357619Y16243810D01*
X4310000Y16148572D01*
X4262380Y16100953D01*
X4167142Y16053334D01*
X4071904Y16053334D01*
X3929047Y16100953D01*
X3357619Y16672381D01*
X3357619Y16053334D01*
X19772333Y85780620D02*
X19439000Y86256810D01*
X19200904Y85780620D02*
X19200904Y86780620D01*
X19581857Y86780620D01*
X19677095Y86733000D01*
X19724714Y86685381D01*
X19772333Y86590143D01*
X19772333Y86447286D01*
X19724714Y86352048D01*
X19677095Y86304429D01*
X19581857Y86256810D01*
X19200904Y86256810D01*
X20724714Y85780620D02*
X20153285Y85780620D01*
X20439000Y85780620D02*
X20439000Y86780620D01*
X20343761Y86637762D01*
X20248523Y86542524D01*
X20153285Y86494905D01*
X31075333Y85780620D02*
X30742000Y86256810D01*
X30503904Y85780620D02*
X30503904Y86780620D01*
X30884857Y86780620D01*
X30980095Y86733000D01*
X31027714Y86685381D01*
X31075333Y86590143D01*
X31075333Y86447286D01*
X31027714Y86352048D01*
X30980095Y86304429D01*
X30884857Y86256810D01*
X30503904Y86256810D01*
X31456285Y86685381D02*
X31503904Y86733000D01*
X31599142Y86780620D01*
X31837238Y86780620D01*
X31932476Y86733000D01*
X31980095Y86685381D01*
X32027714Y86590143D01*
X32027714Y86494905D01*
X31980095Y86352048D01*
X31408666Y85780620D01*
X32027714Y85780620D01*
X41362333Y85780620D02*
X41029000Y86256810D01*
X40790904Y85780620D02*
X40790904Y86780620D01*
X41171857Y86780620D01*
X41267095Y86733000D01*
X41314714Y86685381D01*
X41362333Y86590143D01*
X41362333Y86447286D01*
X41314714Y86352048D01*
X41267095Y86304429D01*
X41171857Y86256810D01*
X40790904Y86256810D01*
X41695666Y86780620D02*
X42314714Y86780620D01*
X41981380Y86399667D01*
X42124238Y86399667D01*
X42219476Y86352048D01*
X42267095Y86304429D01*
X42314714Y86209191D01*
X42314714Y85971096D01*
X42267095Y85875858D01*
X42219476Y85828239D01*
X42124238Y85780620D01*
X41838523Y85780620D01*
X41743285Y85828239D01*
X41695666Y85875858D01*
X24852333Y77144620D02*
X24519000Y77620810D01*
X24280904Y77144620D02*
X24280904Y78144620D01*
X24661857Y78144620D01*
X24757095Y78097000D01*
X24804714Y78049381D01*
X24852333Y77954143D01*
X24852333Y77811286D01*
X24804714Y77716048D01*
X24757095Y77668429D01*
X24661857Y77620810D01*
X24280904Y77620810D01*
X25709476Y77811286D02*
X25709476Y77144620D01*
X25471380Y78192239D02*
X25233285Y77477953D01*
X25852333Y77477953D01*
X37679333Y77017620D02*
X37346000Y77493810D01*
X37107904Y77017620D02*
X37107904Y78017620D01*
X37488857Y78017620D01*
X37584095Y77970000D01*
X37631714Y77922381D01*
X37679333Y77827143D01*
X37679333Y77684286D01*
X37631714Y77589048D01*
X37584095Y77541429D01*
X37488857Y77493810D01*
X37107904Y77493810D01*
X38584095Y78017620D02*
X38107904Y78017620D01*
X38060285Y77541429D01*
X38107904Y77589048D01*
X38203142Y77636667D01*
X38441238Y77636667D01*
X38536476Y77589048D01*
X38584095Y77541429D01*
X38631714Y77446191D01*
X38631714Y77208096D01*
X38584095Y77112858D01*
X38536476Y77065239D01*
X38441238Y77017620D01*
X38203142Y77017620D01*
X38107904Y77065239D01*
X38060285Y77112858D01*
X49109380Y66040096D02*
X49918904Y66040096D01*
X50014142Y66087715D01*
X50061761Y66135334D01*
X50109380Y66230572D01*
X50109380Y66421048D01*
X50061761Y66516286D01*
X50014142Y66563905D01*
X49918904Y66611524D01*
X49109380Y66611524D01*
X50109380Y67611524D02*
X50109380Y67040096D01*
X50109380Y67325810D02*
X49109380Y67325810D01*
X49252238Y67230572D01*
X49347476Y67135334D01*
X49395095Y67040096D01*
X79462380Y85598096D02*
X80271904Y85598096D01*
X80367142Y85645715D01*
X80414761Y85693334D01*
X80462380Y85788572D01*
X80462380Y85979048D01*
X80414761Y86074286D01*
X80367142Y86121905D01*
X80271904Y86169524D01*
X79462380Y86169524D01*
X79557619Y86598096D02*
X79510000Y86645715D01*
X79462380Y86740953D01*
X79462380Y86979048D01*
X79510000Y87074286D01*
X79557619Y87121905D01*
X79652857Y87169524D01*
X79748095Y87169524D01*
X79890952Y87121905D01*
X80462380Y86550477D01*
X80462380Y87169524D01*
X31241904Y59142381D02*
X31241904Y59951905D01*
X31194285Y60047143D01*
X31146666Y60094762D01*
X31051428Y60142381D01*
X30860952Y60142381D01*
X30765714Y60094762D01*
X30718095Y60047143D01*
X30670476Y59951905D01*
X30670476Y59142381D01*
X29765714Y59475715D02*
X29765714Y60142381D01*
X30003809Y59094762D02*
X30241904Y59809048D01*
X29622857Y59809048D01*
X9437619Y11763334D02*
X8723333Y11763334D01*
X8580476Y11810953D01*
X8485238Y11906191D01*
X8437619Y12049048D01*
X8437619Y12144286D01*
X9104285Y10858572D02*
X8437619Y10858572D01*
X9485238Y11096667D02*
X8770952Y11334762D01*
X8770952Y10715715D01*
X20547619Y9333334D02*
X19833333Y9333334D01*
X19690476Y9380953D01*
X19595238Y9476191D01*
X19547619Y9619048D01*
X19547619Y9714286D01*
X20547619Y8380953D02*
X20547619Y8857143D01*
X20071428Y8904762D01*
X20119047Y8857143D01*
X20166666Y8761905D01*
X20166666Y8523810D01*
X20119047Y8428572D01*
X20071428Y8380953D01*
X19976190Y8333334D01*
X19738095Y8333334D01*
X19642857Y8380953D01*
X19595238Y8428572D01*
X19547619Y8523810D01*
X19547619Y8761905D01*
X19595238Y8857143D01*
X19642857Y8904762D01*
X41505238Y5841905D02*
X41457619Y5699048D01*
X41457619Y5460953D01*
X41505238Y5365715D01*
X41552857Y5318096D01*
X41648095Y5270477D01*
X41743333Y5270477D01*
X41838571Y5318096D01*
X41886190Y5365715D01*
X41933809Y5460953D01*
X41981428Y5651429D01*
X42029047Y5746667D01*
X42076666Y5794286D01*
X42171904Y5841905D01*
X42267142Y5841905D01*
X42362380Y5794286D01*
X42410000Y5746667D01*
X42457619Y5651429D01*
X42457619Y5413334D01*
X42410000Y5270477D01*
X41457619Y4318096D02*
X41457619Y4889524D01*
X41457619Y4603810D02*
X42457619Y4603810D01*
X42314761Y4699048D01*
X42219523Y4794286D01*
X42171904Y4889524D01*
X15597142Y67143334D02*
X15644761Y67095715D01*
X15692380Y66952858D01*
X15692380Y66857620D01*
X15644761Y66714762D01*
X15549523Y66619524D01*
X15454285Y66571905D01*
X15263809Y66524286D01*
X15120952Y66524286D01*
X14930476Y66571905D01*
X14835238Y66619524D01*
X14740000Y66714762D01*
X14692380Y66857620D01*
X14692380Y66952858D01*
X14740000Y67095715D01*
X14787619Y67143334D01*
X15692380Y68095715D02*
X15692380Y67524286D01*
X15692380Y67810000D02*
X14692380Y67810000D01*
X14835238Y67714762D01*
X14930476Y67619524D01*
X14978095Y67524286D01*
X51712857Y3976667D02*
X51665238Y4024286D01*
X51617619Y4167143D01*
X51617619Y4262381D01*
X51665238Y4405239D01*
X51760476Y4500477D01*
X51855714Y4548096D01*
X52046190Y4595715D01*
X52189047Y4595715D01*
X52379523Y4548096D01*
X52474761Y4500477D01*
X52570000Y4405239D01*
X52617619Y4262381D01*
X52617619Y4167143D01*
X52570000Y4024286D01*
X52522380Y3976667D01*
X52617619Y3119524D02*
X52617619Y3310000D01*
X52570000Y3405239D01*
X52522380Y3452858D01*
X52379523Y3548096D01*
X52189047Y3595715D01*
X51808095Y3595715D01*
X51712857Y3548096D01*
X51665238Y3500477D01*
X51617619Y3405239D01*
X51617619Y3214762D01*
X51665238Y3119524D01*
X51712857Y3071905D01*
X51808095Y3024286D01*
X52046190Y3024286D01*
X52141428Y3071905D01*
X52189047Y3119524D01*
X52236666Y3214762D01*
X52236666Y3405239D01*
X52189047Y3500477D01*
X52141428Y3548096D01*
X52046190Y3595715D01*
X49823619Y94567334D02*
X49109333Y94567334D01*
X48966476Y94614953D01*
X48871238Y94710191D01*
X48823619Y94853048D01*
X48823619Y94948286D01*
X49823619Y94186381D02*
X49823619Y93567334D01*
X49442666Y93900667D01*
X49442666Y93757810D01*
X49395047Y93662572D01*
X49347428Y93614953D01*
X49252190Y93567334D01*
X49014095Y93567334D01*
X48918857Y93614953D01*
X48871238Y93662572D01*
X48823619Y93757810D01*
X48823619Y94043524D01*
X48871238Y94138762D01*
X48918857Y94186381D01*
X69000619Y9096334D02*
X68286333Y9096334D01*
X68143476Y9143953D01*
X68048238Y9239191D01*
X68000619Y9382048D01*
X68000619Y9477286D01*
X68572047Y8477286D02*
X68619666Y8572524D01*
X68667285Y8620143D01*
X68762523Y8667762D01*
X68810142Y8667762D01*
X68905380Y8620143D01*
X68953000Y8572524D01*
X69000619Y8477286D01*
X69000619Y8286810D01*
X68953000Y8191572D01*
X68905380Y8143953D01*
X68810142Y8096334D01*
X68762523Y8096334D01*
X68667285Y8143953D01*
X68619666Y8191572D01*
X68572047Y8286810D01*
X68572047Y8477286D01*
X68524428Y8572524D01*
X68476809Y8620143D01*
X68381571Y8667762D01*
X68191095Y8667762D01*
X68095857Y8620143D01*
X68048238Y8572524D01*
X68000619Y8477286D01*
X68000619Y8286810D01*
X68048238Y8191572D01*
X68095857Y8143953D01*
X68191095Y8096334D01*
X68381571Y8096334D01*
X68476809Y8143953D01*
X68524428Y8191572D01*
X68572047Y8286810D01*
X79386666Y9215239D02*
X79529523Y9167620D01*
X79767619Y9167620D01*
X79862857Y9215239D01*
X79910476Y9262858D01*
X79958095Y9358096D01*
X79958095Y9453334D01*
X79910476Y9548572D01*
X79862857Y9596191D01*
X79767619Y9643810D01*
X79577142Y9691429D01*
X79481904Y9739048D01*
X79434285Y9786667D01*
X79386666Y9881905D01*
X79386666Y9977143D01*
X79434285Y10072381D01*
X79481904Y10120000D01*
X79577142Y10167620D01*
X79815238Y10167620D01*
X79958095Y10120000D01*
X80291428Y10167620D02*
X80529523Y9167620D01*
X80720000Y9881905D01*
X80910476Y9167620D01*
X81148571Y10167620D01*
X82053333Y9167620D02*
X81481904Y9167620D01*
X81767619Y9167620D02*
X81767619Y10167620D01*
X81672380Y10024762D01*
X81577142Y9929524D01*
X81481904Y9881905D01*
M02*
