M48
; DRILL file {KiCad (5.1.9)-1} date 02/11/25 16:00:38
; FORMAT={-:-/ absolute / metric / decimal}
; #@! TF.CreationDate,2025-02-11T16:00:38+09:00
; #@! TF.GenerationSoftware,Kicad,Pcbnew,(5.1.9)-1
FMAT,2
METRIC
T1C0.300
T2C0.800
T3C1.000
T4C1.100
T5C3.200
T6C3.200
%
G90
G05
T1
X7.823Y35.456
X11.67Y29.804
X15.801Y44.45
X20.55Y42.756
X21.348Y43.374
X22.67Y47.868
X23.103Y40.64
X23.432Y50.248
X23.609Y51.062
X26.026Y38.1
X26.97Y55.484
X27.409Y35.56
X27.652Y47.352
X28.678Y46.45
X29.708Y37.42
X30.297Y54.365
X31.034Y39.772
X32.046Y58.867
X34.588Y58.675
X36.765Y30.59
X43.078Y70.415
X45.59Y39.75
X50.756Y46.576
X52.471Y59.349
X55.487Y81.689
X57.194Y31.804
X58.844Y31.037
X59.346Y28.875
X59.708Y82.519
X61.515Y83.673
X62.735Y50.165
X63.686Y52.585
X72.118Y56.476
T2
X15.24Y72.39
X15.24Y69.89
X17.78Y83.82
X19.05Y74.93
X19.05Y67.31
X19.05Y57.15
X19.05Y54.61
X19.05Y52.07
X19.05Y49.53
X19.05Y46.99
X19.05Y44.45
X19.05Y41.91
X19.05Y39.37
X19.05Y36.83
X19.05Y34.29
X19.05Y31.75
X19.05Y29.21
X19.05Y26.67
X19.05Y24.13
X21.59Y74.93
X21.59Y67.31
X24.13Y80.01
X24.13Y74.93
X24.13Y67.31
X25.4Y83.82
X25.4Y20.32
X26.67Y74.93
X26.67Y67.31
X27.9Y20.32
X29.21Y83.82
X29.21Y74.93
X29.21Y67.31
X31.75Y80.01
X31.75Y74.93
X31.75Y67.31
X34.29Y74.93
X34.29Y67.31
X34.29Y57.15
X34.29Y54.61
X34.29Y52.07
X34.29Y49.53
X34.29Y46.99
X34.29Y44.45
X34.29Y41.91
X34.29Y39.37
X34.29Y36.83
X34.29Y34.29
X34.29Y31.75
X34.29Y29.21
X34.29Y26.67
X34.29Y24.13
X35.56Y80.01
X36.83Y83.82
X36.83Y74.93
X36.83Y67.31
X39.37Y83.82
X39.37Y74.93
X39.37Y67.31
X39.37Y58.42
X39.37Y55.88
X39.37Y53.34
X39.37Y50.8
X39.37Y48.26
X39.37Y45.72
X39.37Y43.18
X39.37Y40.64
X39.37Y38.1
X39.37Y35.56
X39.37Y33.02
X39.37Y30.48
X39.37Y27.94
X39.37Y25.4
X39.37Y22.86
X39.37Y20.32
X39.37Y17.78
X39.37Y15.24
X39.37Y12.7
X39.37Y10.16
X41.91Y74.93
X41.91Y67.31
X43.18Y80.01
X44.45Y74.93
X44.45Y67.31
X45.76Y62.332
X46.99Y83.82
X46.99Y74.93
X46.99Y67.31
X48.26Y62.332
X54.61Y58.42
X54.61Y55.88
X54.61Y53.34
X54.61Y50.8
X54.61Y48.26
X54.61Y45.72
X54.61Y43.18
X54.61Y40.64
X54.61Y38.1
X54.61Y35.56
X54.61Y33.02
X54.61Y30.48
X54.61Y27.94
X54.61Y25.4
X54.61Y22.86
X54.61Y20.32
X54.61Y17.78
X54.61Y15.24
X54.61Y12.7
X54.61Y10.16
X55.88Y91.4
X55.88Y88.9
X55.88Y74.011
X55.88Y71.511
X55.88Y5.04
X55.88Y2.54
X59.69Y93.98
X59.69Y86.36
X59.69Y80.026
X59.69Y64.786
X62.23Y93.98
X62.23Y86.36
X62.23Y80.026
X62.23Y64.786
X62.23Y30.48
X62.23Y15.24
X64.77Y93.98
X64.77Y86.36
X64.77Y80.026
X64.77Y64.786
X64.77Y30.48
X64.77Y15.24
X67.31Y93.98
X67.31Y86.36
X67.31Y80.026
X67.31Y64.786
X67.31Y30.48
X67.31Y15.24
X68.58Y17.78
X69.85Y93.98
X69.85Y86.36
X69.85Y80.026
X69.85Y64.786
X69.85Y30.48
X69.85Y15.24
X71.12Y17.78
X72.39Y93.98
X72.39Y86.36
X72.39Y80.026
X72.39Y64.786
X72.39Y30.48
X72.39Y15.24
X74.93Y93.98
X74.93Y86.36
X74.93Y80.026
X74.93Y64.786
X74.93Y30.48
X74.93Y15.24
X77.47Y93.98
X77.47Y86.36
X77.47Y80.026
X77.47Y64.786
X77.47Y30.48
X77.47Y15.24
X78.74Y17.78
X80.01Y80.026
X80.01Y64.786
X80.01Y30.48
X80.01Y15.24
X81.28Y17.78
X82.55Y80.026
X82.55Y64.786
X82.55Y30.48
X82.55Y15.24
X85.09Y80.026
X85.09Y64.786
X85.09Y30.48
X85.09Y15.24
X87.63Y80.026
X87.63Y64.786
X87.63Y30.48
X87.63Y15.24
X90.17Y80.026
X90.17Y64.786
X90.17Y30.48
X90.17Y15.24
X92.71Y80.026
X92.71Y64.786
T3
X3.81Y80.01
X3.81Y77.47
X3.81Y74.93
X3.81Y72.39
X3.81Y69.85
X3.81Y67.31
X3.81Y64.77
X3.81Y62.23
X3.81Y59.69
X3.81Y57.15
X3.81Y54.61
X3.81Y52.07
X3.81Y49.53
X3.81Y46.99
X3.81Y44.45
X3.81Y41.91
X3.81Y39.37
X3.81Y36.83
X3.81Y34.29
X3.81Y31.75
X3.81Y29.21
X3.81Y26.67
X3.81Y24.13
X3.81Y21.59
X3.81Y19.05
X8.89Y80.01
X8.89Y77.47
X8.89Y74.93
X8.89Y72.39
X8.89Y69.85
X8.89Y67.31
X8.89Y64.77
X8.89Y62.23
X8.89Y59.69
X8.89Y57.15
X8.89Y54.61
X8.89Y52.07
X8.89Y49.53
X8.89Y46.99
X8.89Y44.45
X8.89Y41.91
X8.89Y39.37
X8.89Y36.83
X8.89Y34.29
X8.89Y31.75
X8.89Y29.21
X8.89Y26.67
X8.89Y24.13
X8.89Y21.59
X8.89Y19.05
X11.43Y10.16
X13.97Y10.16
X27.0Y89.5
X28.385Y92.34
X29.77Y89.5
X31.155Y92.34
X32.54Y89.5
X33.925Y92.34
X35.31Y89.5
X36.695Y92.34
X38.08Y89.5
X39.37Y2.54
X41.91Y2.54
X44.45Y2.54
X60.96Y53.975
X60.96Y51.435
X60.96Y48.895
X60.96Y46.355
X60.96Y43.815
X60.96Y41.275
X69.85Y58.42
X69.85Y55.88
X69.85Y53.34
X69.85Y50.8
X69.85Y48.26
X69.85Y45.72
X69.85Y43.18
X69.85Y40.64
X69.85Y38.1
X71.12Y10.16
X95.25Y58.42
X95.25Y38.1
X97.79Y58.42
X97.79Y38.1
T4
X77.47Y7.62
X77.47Y3.12
X83.97Y7.62
X83.97Y3.12
T5
X20.04Y90.92
X45.04Y90.92
T6
X5.0Y95.0
X5.0Y5.0
X95.0Y95.0
X95.0Y5.0
T3
G00X25.0Y14.0
M15
G01X27.0Y14.0
M16
G05
G00X25.0Y8.0
M15
G01X27.0Y8.0
M16
G05
G00X30.7Y10.0
M15
G01X30.7Y12.0
M16
G05
T0
M30
