G04 #@! TF.GenerationSoftware,KiCad,Pcbnew,(5.1.9)-1*
G04 #@! TF.CreationDate,2024-12-20T15:57:44+09:00*
G04 #@! TF.ProjectId,JR-100_SD,4a522d31-3030-45f5-9344-2e6b69636164,rev?*
G04 #@! TF.SameCoordinates,PX53920b0PY93c3260*
G04 #@! TF.FileFunction,Soldermask,Top*
G04 #@! TF.FilePolarity,Negative*
%FSLAX46Y46*%
G04 Gerber Fmt 4.6, Leading zero omitted, Abs format (unit mm)*
G04 Created by KiCad (PCBNEW (5.1.9)-1) date 2024-12-20 15:57:44*
%MOMM*%
%LPD*%
G01*
G04 APERTURE LIST*
%ADD10C,1.600000*%
%ADD11R,1.600000X2.400000*%
%ADD12O,1.600000X2.400000*%
%ADD13O,2.400000X1.600000*%
%ADD14R,2.400000X1.600000*%
%ADD15C,3.200000*%
%ADD16R,1.700000X1.700000*%
%ADD17O,1.700000X1.700000*%
%ADD18R,1.600000X1.600000*%
%ADD19O,1.600000X1.600000*%
%ADD20R,3.500000X3.500000*%
%ADD21C,4.000000*%
%ADD22C,2.000000*%
G04 APERTURE END LIST*
D10*
X47622000Y62332000D03*
X45122000Y62332000D03*
D11*
X59690000Y64786000D03*
D12*
X92710000Y80026000D03*
X62230000Y64786000D03*
X90170000Y80026000D03*
X64770000Y64786000D03*
X87630000Y80026000D03*
X67310000Y64786000D03*
X85090000Y80026000D03*
X69850000Y64786000D03*
X82550000Y80026000D03*
X72390000Y64786000D03*
X80010000Y80026000D03*
X74930000Y64786000D03*
X77470000Y80026000D03*
X77470000Y64786000D03*
X74930000Y80026000D03*
X80010000Y64786000D03*
X72390000Y80026000D03*
X82550000Y64786000D03*
X69850000Y80026000D03*
X85090000Y64786000D03*
X67310000Y80026000D03*
X87630000Y64786000D03*
X64770000Y80026000D03*
X90170000Y64786000D03*
X62230000Y80026000D03*
X92710000Y64786000D03*
X59690000Y80026000D03*
D13*
X39407000Y10262000D03*
X54647000Y58522000D03*
X39407000Y12802000D03*
X54647000Y55982000D03*
X39407000Y15342000D03*
X54647000Y53442000D03*
X39407000Y17882000D03*
X54647000Y50902000D03*
X39407000Y20422000D03*
X54647000Y48362000D03*
X39407000Y22962000D03*
X54647000Y45822000D03*
X39407000Y25502000D03*
X54647000Y43282000D03*
X39407000Y28042000D03*
X54647000Y40742000D03*
X39407000Y30582000D03*
X54647000Y38202000D03*
X39407000Y33122000D03*
X54647000Y35662000D03*
X39407000Y35662000D03*
X54647000Y33122000D03*
X39407000Y38202000D03*
X54647000Y30582000D03*
X39407000Y40742000D03*
X54647000Y28042000D03*
X39407000Y43282000D03*
X54647000Y25502000D03*
X39407000Y45822000D03*
X54647000Y22962000D03*
X39407000Y48362000D03*
X54647000Y20422000D03*
X39407000Y50902000D03*
X54647000Y17882000D03*
X39407000Y53442000D03*
X54647000Y15342000D03*
X39407000Y55982000D03*
X54647000Y12802000D03*
X39407000Y58522000D03*
D14*
X54647000Y10262000D03*
D10*
X55880000Y74011000D03*
X55880000Y71511000D03*
D15*
X5000000Y95000000D03*
X95000000Y95000000D03*
X95000000Y5000000D03*
X5000000Y5000000D03*
D16*
X8890000Y19050000D03*
D17*
X8890000Y21590000D03*
X8890000Y24130000D03*
X8890000Y26670000D03*
X8890000Y29210000D03*
X8890000Y31750000D03*
X8890000Y34290000D03*
X8890000Y36830000D03*
X8890000Y39370000D03*
X8890000Y41910000D03*
X8890000Y44450000D03*
X8890000Y46990000D03*
X8890000Y49530000D03*
X8890000Y52070000D03*
X8890000Y54610000D03*
X8890000Y57150000D03*
X8890000Y59690000D03*
X8890000Y62230000D03*
X8890000Y64770000D03*
X8890000Y67310000D03*
X8890000Y69850000D03*
X8890000Y72390000D03*
X8890000Y74930000D03*
X8890000Y77470000D03*
X8890000Y80010000D03*
D16*
X69850000Y58420000D03*
D17*
X69850000Y55880000D03*
X69850000Y53340000D03*
X69850000Y50800000D03*
X69850000Y48260000D03*
X69850000Y45720000D03*
X69850000Y43180000D03*
X69850000Y40640000D03*
X69850000Y38100000D03*
X97790000Y38100000D03*
X95250000Y38100000D03*
X97790000Y58420000D03*
X95250000Y58420000D03*
D18*
X90170000Y30480000D03*
D19*
X87630000Y30480000D03*
X85090000Y30480000D03*
X62230000Y15240000D03*
X82550000Y30480000D03*
X64770000Y15240000D03*
X80010000Y30480000D03*
X67310000Y15240000D03*
X77470000Y30480000D03*
X69850000Y15240000D03*
X74930000Y30480000D03*
X72390000Y15240000D03*
X72390000Y30480000D03*
X74930000Y15240000D03*
X69850000Y30480000D03*
X77470000Y15240000D03*
X67310000Y30480000D03*
X80010000Y15240000D03*
X64770000Y30480000D03*
X82550000Y15240000D03*
X62230000Y30480000D03*
X85090000Y15240000D03*
X87630000Y15240000D03*
X90170000Y15240000D03*
X81280000Y17780000D03*
X78740000Y17780000D03*
X71120000Y17780000D03*
X68580000Y17780000D03*
D16*
X60960000Y53975000D03*
D17*
X60960000Y51435000D03*
X60960000Y48895000D03*
X60960000Y46355000D03*
X60960000Y43815000D03*
X60960000Y41275000D03*
D10*
X27900000Y20320000D03*
X25400000Y20320000D03*
X55880000Y88900000D03*
X55880000Y91400000D03*
D16*
X3810000Y19050000D03*
D17*
X3810000Y21590000D03*
X3810000Y24130000D03*
X3810000Y26670000D03*
X3810000Y29210000D03*
X3810000Y31750000D03*
X3810000Y34290000D03*
X3810000Y36830000D03*
X3810000Y39370000D03*
X3810000Y41910000D03*
X3810000Y44450000D03*
X3810000Y46990000D03*
X3810000Y49530000D03*
X3810000Y52070000D03*
X3810000Y54610000D03*
X3810000Y57150000D03*
X3810000Y59690000D03*
X3810000Y62230000D03*
X3810000Y64770000D03*
X3810000Y67310000D03*
X3810000Y69850000D03*
X3810000Y72390000D03*
X3810000Y74930000D03*
X3810000Y77470000D03*
X3810000Y80010000D03*
D10*
X17780000Y83820000D03*
D19*
X25400000Y83820000D03*
X36830000Y83820000D03*
D10*
X29210000Y83820000D03*
X39370000Y83820000D03*
D19*
X46990000Y83820000D03*
X31750000Y80010000D03*
D10*
X24130000Y80010000D03*
X35560000Y80010000D03*
D19*
X43180000Y80010000D03*
D11*
X19050000Y67310000D03*
D12*
X46990000Y74930000D03*
X21590000Y67310000D03*
X44450000Y74930000D03*
X24130000Y67310000D03*
X41910000Y74930000D03*
X26670000Y67310000D03*
X39370000Y74930000D03*
X29210000Y67310000D03*
X36830000Y74930000D03*
X31750000Y67310000D03*
X34290000Y74930000D03*
X34290000Y67310000D03*
X31750000Y74930000D03*
X36830000Y67310000D03*
X29210000Y74930000D03*
X39370000Y67310000D03*
X26670000Y74930000D03*
X41910000Y67310000D03*
X24130000Y74930000D03*
X44450000Y67310000D03*
X21590000Y74930000D03*
X46990000Y67310000D03*
X19050000Y74930000D03*
D11*
X59690000Y86360000D03*
D12*
X77470000Y93980000D03*
X62230000Y86360000D03*
X74930000Y93980000D03*
X64770000Y86360000D03*
X72390000Y93980000D03*
X67310000Y86360000D03*
X69850000Y93980000D03*
X69850000Y86360000D03*
X67310000Y93980000D03*
X72390000Y86360000D03*
X64770000Y93980000D03*
X74930000Y86360000D03*
X62230000Y93980000D03*
X77470000Y86360000D03*
X59690000Y93980000D03*
D14*
X34290000Y24130000D03*
D13*
X19050000Y57150000D03*
X34290000Y26670000D03*
X19050000Y54610000D03*
X34290000Y29210000D03*
X19050000Y52070000D03*
X34290000Y31750000D03*
X19050000Y49530000D03*
X34290000Y34290000D03*
X19050000Y46990000D03*
X34290000Y36830000D03*
X19050000Y44450000D03*
X34290000Y39370000D03*
X19050000Y41910000D03*
X34290000Y41910000D03*
X19050000Y39370000D03*
X34290000Y44450000D03*
X19050000Y36830000D03*
X34290000Y46990000D03*
X19050000Y34290000D03*
X34290000Y49530000D03*
X19050000Y31750000D03*
X34290000Y52070000D03*
X19050000Y29210000D03*
X34290000Y54610000D03*
X19050000Y26670000D03*
X34290000Y57150000D03*
X19050000Y24130000D03*
D16*
X13970000Y10160000D03*
D17*
X11430000Y10160000D03*
D20*
X26000000Y14000000D03*
G36*
G01*
X27000000Y6500000D02*
X25000000Y6500000D01*
G75*
G02*
X24250000Y7250000I0J750000D01*
G01*
X24250000Y8750000D01*
G75*
G02*
X25000000Y9500000I750000J0D01*
G01*
X27000000Y9500000D01*
G75*
G02*
X27750000Y8750000I0J-750000D01*
G01*
X27750000Y7250000D01*
G75*
G02*
X27000000Y6500000I-750000J0D01*
G01*
G37*
G36*
G01*
X31575000Y9250000D02*
X29825000Y9250000D01*
G75*
G02*
X28950000Y10125000I0J875000D01*
G01*
X28950000Y11875000D01*
G75*
G02*
X29825000Y12750000I875000J0D01*
G01*
X31575000Y12750000D01*
G75*
G02*
X32450000Y11875000I0J-875000D01*
G01*
X32450000Y10125000D01*
G75*
G02*
X31575000Y9250000I-875000J0D01*
G01*
G37*
D16*
X44450000Y2540000D03*
D17*
X41910000Y2540000D03*
X39370000Y2540000D03*
D10*
X15240000Y69890000D03*
X15240000Y72390000D03*
D18*
X55880000Y2540000D03*
D10*
X55880000Y5040000D03*
D18*
X38080000Y89500000D03*
D10*
X35310000Y89500000D03*
X32540000Y89500000D03*
X29770000Y89500000D03*
X27000000Y89500000D03*
X36695000Y92340000D03*
X33925000Y92340000D03*
X31155000Y92340000D03*
X28385000Y92340000D03*
D21*
X45040000Y90920000D03*
X20040000Y90920000D03*
D16*
X71120000Y10160000D03*
D22*
X77470000Y3120000D03*
X77470000Y7620000D03*
X83970000Y3120000D03*
X83970000Y7620000D03*
M02*
